{
.appVersion = "3227";
.formatVersion = 3;
DisplayStrings = (
n,
"ABCDEFGHIJKLMNOPQRSTUVWXYZ
HHAHHOHAOOAOO
HHBHHOHBOOBOO
HHCHHOHCOOCOO
HHDHHOHDOODOO
HHEHHOHEOOEOO
HHFHHOHFOOFOO
HHGHHOHGOOGOO
HHHHHOHHOOHOO
HHIHHOHIOOIOO
HHJHHOHJOOJOO
HHKHHOHKOOKOO
HHLHHOHLOOLOO
HHMHHOHMOOMOO
HHNHHOHNOONOO
HHOHHOHOOOOOO
HHPHHOHPOOPOO
HHQHHOHQOOQOO
HHRHHOHROOROO
HHSHHOHSOOSOO
HHTHHOHTOOTOO
HHUHHOHUOOUOO
HHVHHOHVOOVOO
HHWHHOHWOOWOO
HHXHHOHXOOXOO
HHYHHOHYOOYOO
HHZHHOHZOOZOO
",
"̈̇",
i,
"/_part.cut",
" 
",
"STOMACHFUL DIVERGED CLONMEL BRUISES RIDDED BISULPHATE ROOFS COPENHAGEN DEPONE SOLECISED TONS PIPA BERSERKS HAUSTELLUM AFFIRMABLE UNLOVINGNESS ACUSHLAS STATESPERSON CAMBRIAN JOURNEYERS HOBS PLYMOUTHITE KEMBO HERDERS ASPERATING URIAL GIRNIER FRANCE SLEAZILY FIGHTINGS MIDLOTHIAN INCHOATED ZYMOLYTIC ETIOLATING CRACKLES EXPROMISSOR BATSWINGS NOGGINGS ANCIENT UNFORESEEING"
);
axes = (
{
name = "Element Shape";
tag = ELSH;
}
);
customParameters = (
{
name = "Virtual Master";
value = (
{
Axis = "Element Shape";
Location = 6;
}
);
},
{
name = "Use Typo Metrics";
value = 1;
},
{
name = blueScale;
value = 0.04;
},
{
name = blueShift;
value = 7;
},
{
name = blueFuzz;
value = 1;
}
);
date = "2023-09-29 07:07:32 +0000";
familyName = Danfo;
fontMaster = (
{
axesValues = (
0
);
guides = (
{
pos = (382,631);
},
{
pos = (398,631);
},
{
pos = (276,575);
},
{
orientation = center;
angle = 180;
pos = (413,434);
},
{
angle = 180;
pos = (218,636);
},
{
pos = (307,505);
}
);
iconName = Bold;
id = m01;
metricValues = (
{
pos = 900;
},
{
over = 16;
pos = 716;
},
{
pos = 412;
},
{
over = -14;
},
{
pos = -100;
}
);
name = Bold;
stemValues = (
63,
292
);
}
);
glyphs = (
{
color = 2;
glyphname = A;
lastChange = "2023-11-29 11:08:39 +0000";
layers = (
{
anchors = (
{
name = bottom;
pos = (336,0);
},
{
name = ogonek;
pos = (441,0);
},
{
name = top;
pos = (336,716);
}
);
layerId = m01;
shapes = (
{
closed = 1;
nodes = (
(285,0,l),
(285,434,l),
(259,434,ls),
(242,434,o),
(225,445,o),
(225,467,cs),
(225,483,o),
(235,500,o),
(259,500,cs),
(359,500,ls),
(380,500,o),
(393,487,o),
(393,468,cs),
(393,448,o),
(380,434,o),
(359,434,cs),
(343,434,l),
(343,0,l),
(670,0,l),
(670,434,l),
(610,434,o),
(600,451,o),
(563,517,cs),
(451,716,l),
(257,716,l),
(136,514,ls),
(94,445,o),
(76,434,o),
(28,434,c),
(28,0,l)
);
},
{
closed = 1;
nodes = (
(308,647,l),
(356,564,l),
(259,564,l)
);
}
);
width = 698;
}
);
unicode = 65;
},
{
color = 2;
glyphname = B;
lastChange = "2023-11-29 11:08:39 +0000";
layers = (
{
anchors = (
{
name = bottom;
pos = (345,0);
},
{
name = center;
pos = (345,358);
},
{
name = top;
pos = (345,716);
}
);
layerId = m01;
shapes = (
{
closed = 1;
nodes = (
(437,0,ls),
(546,0,o),
(626,79,o),
(626,186,cs),
(626,375,ls),
(626,518,o),
(537,540,o),
(468,540,c),
(468,543,l),
(486,543,ls),
(523,543,o),
(601,560,o),
(601,628,c),
(601,712,o),
(512,716,o),
(472,716,c),
(41,716,l),
(41,636,l),
(91,636,o),
(108,609,o),
(108,569,cs),
(108,495,ls),
(108,455,o),
(91,434,o),
(41,434,c),
(41,0,l)
);
},
{
closed = 1;
nodes = (
(276,506,l),
(391,507,ls),
(419,507,o),
(432,493,o),
(432,472,cs),
(432,450,o),
(416,439,o),
(390,439,cs),
(276,438,l)
);
},
{
closed = 1;
nodes = (
(276,636,l),
(371,636,ls),
(399,636,o),
(412,622,o),
(412,604,cs),
(412,582,o),
(396,571,o),
(370,571,cs),
(276,570,l)
);
}
);
width = 651;
}
);
metricLeft = H;
unicode = 66;
},
{
color = 2;
glyphname = C;
lastChange = "2023-11-29 11:08:39 +0000";
layers = (
{
anchors = (
{
name = bottom;
pos = (321,0);
},
{
name = top;
pos = (321,716);
}
);
guides = (
{
pos = (-223,802);
}
);
layerId = m01;
shapes = (
{
closed = 1;
nodes = (
(570,0,l),
(570,434,l),
(332,434,ls),
(247,434,o),
(230,465,o),
(230,520,cs),
(230,547,ls),
(230,609,o),
(247,636,o),
(297,636,cs),
(340,636,ls),
(390,636,o),
(407,609,o),
(407,564,c),
(571,564,l),
(571,656,o),
(507,722,o),
(420,722,cs),
(217,722,ls),
(108,722,o),
(28,643,o),
(28,536,cs),
(28,186,ls),
(28,79,o),
(108,0,o),
(217,0,cs)
);
}
);
width = 611;
}
);
unicode = 67;
},
{
color = 2;
glyphname = D;
lastChange = "2023-11-29 11:19:58 +0000";
layers = (
{
anchors = (
{
name = bottom;
pos = (315,0);
},
{
name = center;
pos = (315,358);
},
{
name = top;
pos = (315,716);
}
);
layerId = m01;
shapes = (
{
closed = 1;
nodes = (
(437,0,ls),
(546,0,o),
(626,79,o),
(626,186,cs),
(626,530,ls),
(626,637,o),
(546,716,o),
(437,716,c),
(41,716,l),
(41,636,l),
(91,636,o),
(108,609,o),
(108,569,cs),
(108,495,ls),
(108,455,o),
(91,434,o),
(41,434,c),
(41,0,l)
);
},
{
closed = 1;
nodes = (
(276,636,l),
(357,636,ls),
(407,636,o),
(424,609,o),
(424,569,cs),
(424,500,ls),
(424,460,o),
(407,439,o),
(357,439,cs),
(276,439,l)
);
}
);
width = 655;
}
);
metricRight = O;
unicode = 68;
},
{
color = 2;
glyphname = E;
lastChange = "2023-11-29 11:08:39 +0000";
layers = (
{
layerId = m01;
shapes = (
{
closed = 1;
nodes = (
(570,0,l),
(570,500,l),
(480,500,l),
(480,460,o),
(463,439,o),
(413,439,cs),
(276,439,l),
(276,505,l),
(393,505,l),
(393,575,l),
(276,575,l),
(276,635,l),
(407,636,ls),
(457,636,o),
(474,609,o),
(474,569,c),
(564,569,l),
(564,716,l),
(40,716,l),
(40,636,l),
(90,636,o),
(108,604,o),
(108,564,cs),
(108,500,ls),
(108,460,o),
(91,434,o),
(41,434,c),
(40,0,l)
);
}
);
width = 618;
}
);
unicode = 69;
},
{
color = 2;
glyphname = F;
lastChange = "2023-11-29 11:08:39 +0000";
layers = (
{
anchors = (
{
name = bottom;
pos = (336,0);
},
{
name = top;
pos = (336,716);
}
);
layerId = m01;
shapes = (
{
closed = 1;
nodes = (
(47,0,l),
(457,0,l),
(457,439,l),
(343,439,ls),
(293,439,o),
(276,461,o),
(276,501,c),
(393,501,l),
(393,571,l),
(276,571,l),
(276,635,l),
(407,636,ls),
(457,636,o),
(474,609,o),
(474,569,c),
(564,569,l),
(564,716,l),
(40,716,l),
(40,636,l),
(90,636,o),
(108,604,o),
(108,564,cs),
(108,500,ls),
(108,460,o),
(91,434,o),
(41,434,c),
(40,0,l)
);
}
);
width = 584;
}
);
unicode = 70;
},
{
color = 2;
glyphname = G;
lastChange = "2023-11-29 11:08:39 +0000";
layers = (
{
anchors = (
{
name = bottom;
pos = (328,0);
},
{
name = top;
pos = (328,716);
}
);
layerId = m01;
shapes = (
{
closed = 1;
nodes = (
(302,-8,ls),
(405,-8,o),
(439,48,o),
(439,130,cs),
(439,192,l),
(482,192,o),
(497,168,o),
(497,133,cs),
(497,0,l),
(587,0,l),
(587,500,l),
(423,500,l),
(423,460,o),
(406,439,o),
(382,439,cs),
(272,439,ls),
(248,439,o),
(231,460,o),
(231,500,cs),
(231,547,ls),
(231,609,o),
(248,636,o),
(298,636,cs),
(356,636,ls),
(406,636,o),
(423,609,o),
(423,564,c),
(587,564,l),
(587,656,o),
(523,722,o),
(436,722,cs),
(218,722,ls),
(109,722,o),
(29,643,o),
(29,536,cs),
(29,178,ls),
(29,71,o),
(109,-8,o),
(218,-8,cs)
);
},
{
pos = (-15,5);
ref = cutdetail.part;
}
);
width = 627;
}
);
unicode = 71;
},
{
color = 2;
glyphname = H;
lastChange = "2023-11-29 11:08:39 +0000";
layers = (
{
anchors = (
{
name = bottom;
pos = (361,0);
},
{
name = center;
pos = (361,358);
},
{
name = top;
pos = (361,716);
},
{
name = topleft;
pos = (12,716);
}
);
layerId = m01;
shapes = (
{
closed = 1;
nodes = (
(683,0,l),
(683,434,l),
(633,434,o),
(616,460,o),
(616,500,cs),
(616,564,ls),
(616,604,o),
(633,636,o),
(683,636,c),
(683,716,l),
(391,716,l),
(391,631,l),
(441,631,o),
(458,604,o),
(458,564,cs),
(458,500,ls),
(458,460,o),
(441,439,o),
(391,439,c),
(391,0,l)
);
},
{
closed = 1;
nodes = (
(333,0,l),
(333,439,l),
(283,439,o),
(266,460,o),
(266,500,cs),
(266,564,ls),
(266,604,o),
(283,631,o),
(333,631,c),
(333,716,l),
(41,716,l),
(41,636,l),
(91,636,o),
(108,604,o),
(108,564,cs),
(108,500,ls),
(108,460,o),
(91,434,o),
(41,434,c),
(41,0,l)
);
},
{
closed = 1;
nodes = (
(482,505,l),
(482,575,l),
(241,575,l),
(241,505,l)
);
}
);
width = 724;
},
{
anchors = (
{
name = bottom;
pos = (366,0);
},
{
name = center;
pos = (366,358);
},
{
name = top;
pos = (366,716);
},
{
name = topleft;
pos = (17,716);
}
);
associatedMasterId = m01;
attr = {
coordinates = (
1
);
};
layerId = "12A47B7F-8BB7-46F0-8116-FA126A5F0C92";
name = "Nov 20, 23 at 14:28";
shapes = (
{
closed = 1;
nodes = (
(338,0,l),
(338,434,l),
(301,434,o),
(273,457,o),
(273,482,cs),
(273,501,l),
(460,501,l),
(460,482,ls),
(460,457,o),
(432,434,o),
(396,434,c),
(396,0,l),
(688,0,l),
(688,434,l),
(630,434,o),
(620,467,o),
(620,510,cs),
(620,571,ls),
(620,611,o),
(637,636,o),
(688,636,c),
(688,716,l),
(396,716,l),
(396,631,l),
(440,631,o),
(460,610,o),
(460,575,cs),
(460,564,l),
(273,564,l),
(273,575,ls),
(273,610,o),
(293,631,o),
(338,631,c),
(338,716,l),
(46,716,l),
(46,636,l),
(97,636,o),
(113,611,o),
(113,571,cs),
(113,510,ls),
(113,467,o),
(104,435,o),
(46,435,c),
(46,0,l)
);
},
{
alignment = -1;
pos = (46,142);
ref = _part.cut;
},
{
alignment = -1;
pos = (688,142);
ref = _part.cut;
scale = (-1,1);
}
);
width = 734;
},
{
anchors = (
{
name = bottom;
pos = (366,0);
},
{
name = center;
pos = (366,358);
},
{
name = top;
pos = (366,716);
},
{
name = topleft;
pos = (17,716);
}
);
associatedMasterId = m01;
attr = {
coordinates = (
2
);
};
layerId = "D2DEDFB8-712E-47BA-B482-C422101791E6";
name = "Nov 20, 23 at 14:28";
shapes = (
{
closed = 1;
nodes = (
(338,0,l),
(338,434,l),
(301,434,o),
(273,457,o),
(273,482,cs),
(273,501,l),
(460,501,l),
(460,482,ls),
(460,457,o),
(432,434,o),
(396,434,c),
(396,0,l),
(688,0,l),
(688,434,l),
(630,434,o),
(620,467,o),
(620,510,cs),
(620,571,ls),
(620,611,o),
(637,636,o),
(688,636,c),
(688,716,l),
(396,716,l),
(396,631,l),
(440,631,o),
(460,610,o),
(460,575,cs),
(460,564,l),
(273,564,l),
(273,575,ls),
(273,610,o),
(293,631,o),
(338,631,c),
(338,716,l),
(46,716,l),
(46,636,l),
(97,636,o),
(113,611,o),
(113,571,cs),
(113,510,ls),
(113,467,o),
(104,435,o),
(46,435,c),
(46,0,l)
);
},
{
alignment = -1;
pos = (46,142);
ref = _part.cut;
},
{
alignment = -1;
pos = (688,142);
ref = _part.cut;
scale = (-1,1);
}
);
width = 734;
},
{
anchors = (
{
name = bottom;
pos = (366,0);
},
{
name = center;
pos = (366,358);
},
{
name = top;
pos = (366,716);
},
{
name = topleft;
pos = (17,716);
}
);
associatedMasterId = m01;
attr = {
coordinates = (
3
);
};
layerId = "50F3B599-CC80-4C56-8DE9-190D9965BB9D";
name = "Nov 20, 23 at 14:28";
shapes = (
{
closed = 1;
nodes = (
(338,0,l),
(338,434,l),
(301,434,o),
(273,457,o),
(273,482,cs),
(273,501,l),
(460,501,l),
(460,482,ls),
(460,457,o),
(432,434,o),
(396,434,c),
(396,0,l),
(688,0,l),
(688,434,l),
(630,434,o),
(620,467,o),
(620,510,cs),
(620,571,ls),
(620,611,o),
(637,636,o),
(688,636,c),
(688,716,l),
(396,716,l),
(396,631,l),
(440,631,o),
(460,610,o),
(460,575,cs),
(460,564,l),
(273,564,l),
(273,575,ls),
(273,610,o),
(293,631,o),
(338,631,c),
(338,716,l),
(46,716,l),
(46,636,l),
(97,636,o),
(113,611,o),
(113,571,cs),
(113,510,ls),
(113,467,o),
(104,435,o),
(46,435,c),
(46,0,l)
);
},
{
alignment = -1;
pos = (46,142);
ref = _part.cut;
},
{
alignment = -1;
pos = (688,142);
ref = _part.cut;
scale = (-1,1);
}
);
width = 734;
},
{
anchors = (
{
name = bottom;
pos = (366,0);
},
{
name = center;
pos = (366,358);
},
{
name = top;
pos = (366,716);
},
{
name = topleft;
pos = (17,716);
}
);
associatedMasterId = m01;
attr = {
coordinates = (
4
);
};
layerId = "76348C5F-A042-45EB-821F-1708219A2FDF";
name = "Nov 20, 23 at 14:28";
shapes = (
{
closed = 1;
nodes = (
(338,0,l),
(338,434,l),
(301,434,o),
(273,457,o),
(273,482,cs),
(273,501,l),
(460,501,l),
(460,482,ls),
(460,457,o),
(432,434,o),
(396,434,c),
(396,0,l),
(688,0,l),
(688,434,l),
(630,434,o),
(620,467,o),
(620,510,cs),
(620,571,ls),
(620,611,o),
(637,636,o),
(688,636,c),
(688,716,l),
(396,716,l),
(396,631,l),
(440,631,o),
(460,610,o),
(460,575,cs),
(460,564,l),
(273,564,l),
(273,575,ls),
(273,610,o),
(293,631,o),
(338,631,c),
(338,716,l),
(46,716,l),
(46,636,l),
(97,636,o),
(113,611,o),
(113,571,cs),
(113,510,ls),
(113,467,o),
(104,435,o),
(46,435,c),
(46,0,l)
);
},
{
alignment = -1;
pos = (46,142);
ref = _part.cut;
},
{
alignment = -1;
pos = (688,142);
ref = _part.cut;
scale = (-1,1);
}
);
width = 734;
},
{
anchors = (
{
name = bottom;
pos = (366,0);
},
{
name = center;
pos = (366,358);
},
{
name = top;
pos = (366,716);
},
{
name = topleft;
pos = (17,716);
}
);
associatedMasterId = m01;
attr = {
coordinates = (
5
);
};
layerId = "B398489B-298E-4C71-BC7C-83BA80D28763";
name = "Nov 20, 23 at 14:28";
shapes = (
{
closed = 1;
nodes = (
(338,0,l),
(338,434,l),
(301,434,o),
(273,457,o),
(273,482,cs),
(273,501,l),
(460,501,l),
(460,482,ls),
(460,457,o),
(432,434,o),
(396,434,c),
(396,0,l),
(688,0,l),
(688,434,l),
(630,434,o),
(620,467,o),
(620,510,cs),
(620,571,ls),
(620,611,o),
(637,636,o),
(688,636,c),
(688,716,l),
(396,716,l),
(396,631,l),
(440,631,o),
(460,610,o),
(460,575,cs),
(460,564,l),
(273,564,l),
(273,575,ls),
(273,610,o),
(293,631,o),
(338,631,c),
(338,716,l),
(46,716,l),
(46,636,l),
(97,636,o),
(113,611,o),
(113,571,cs),
(113,510,ls),
(113,467,o),
(104,435,o),
(46,435,c),
(46,0,l)
);
},
{
alignment = -1;
pos = (46,142);
ref = _part.cut;
},
{
alignment = -1;
pos = (688,142);
ref = _part.cut;
scale = (-1,1);
}
);
width = 734;
},
{
anchors = (
{
name = bottom;
pos = (366,0);
},
{
name = center;
pos = (366,358);
},
{
name = top;
pos = (366,716);
},
{
name = topleft;
pos = (17,716);
}
);
associatedMasterId = m01;
attr = {
coordinates = (
6
);
};
layerId = "19A85124-AF3B-4CA4-9AE9-A29746DE0E55";
name = "Nov 20, 23 at 14:28";
shapes = (
{
closed = 1;
nodes = (
(338,0,l),
(338,434,l),
(301,434,o),
(273,457,o),
(273,482,cs),
(273,501,l),
(460,501,l),
(460,482,ls),
(460,457,o),
(432,434,o),
(396,434,c),
(396,0,l),
(688,0,l),
(688,434,l),
(630,434,o),
(620,467,o),
(620,510,cs),
(620,571,ls),
(620,611,o),
(637,636,o),
(688,636,c),
(688,716,l),
(396,716,l),
(396,631,l),
(440,631,o),
(460,610,o),
(460,575,cs),
(460,564,l),
(273,564,l),
(273,575,ls),
(273,610,o),
(293,631,o),
(338,631,c),
(338,716,l),
(46,716,l),
(46,636,l),
(97,636,o),
(113,611,o),
(113,571,cs),
(113,510,ls),
(113,467,o),
(104,435,o),
(46,435,c),
(46,0,l)
);
},
{
alignment = -1;
pos = (46,142);
ref = _part.cut;
},
{
alignment = -1;
pos = (688,142);
ref = _part.cut;
scale = (-1,1);
}
);
width = 734;
}
);
unicode = 72;
},
{
color = 2;
glyphname = I;
lastChange = "2023-11-29 11:08:39 +0000";
layers = (
{
anchors = (
{
name = bottom;
pos = (199,0);
},
{
name = ogonek;
pos = (356,0);
},
{
name = top;
pos = (199,716);
},
{
name = topleft;
pos = (13,716);
}
);
layerId = m01;
shapes = (
{
closed = 1;
nodes = (
(333,0,l),
(333,434,l),
(283,434,o),
(266,460,o),
(266,500,cs),
(266,564,ls),
(266,604,o),
(283,636,o),
(333,636,c),
(333,716,l),
(41,716,l),
(41,636,l),
(91,636,o),
(108,609,o),
(108,569,cs),
(108,495,ls),
(108,455,o),
(91,434,o),
(41,434,c),
(41,0,l)
);
}
);
width = 374;
}
);
unicode = 73;
},
{
color = 4;
glyphname = J;
lastChange = "2023-11-29 11:08:39 +0000";
layers = (
{
anchors = (
{
name = bottom;
pos = (281,0);
},
{
name = top;
pos = (281,716);
}
);
layerId = m01;
shapes = (
{
closed = 1;
nodes = (
(349,0,ls),
(458,0,o),
(538,79,o),
(538,186,cs),
(538,434,l),
(488,434,o),
(471,460,o),
(471,500,cs),
(471,564,ls),
(471,604,o),
(488,636,o),
(538,636,c),
(538,716,l),
(246,716,l),
(246,631,l),
(296,631,o),
(313,604,o),
(313,564,cs),
(313,501,ls),
(313,461,o),
(296,440,o),
(246,440,cs),
(30,440,l),
(30,0,l)
);
}
);
width = 574;
}
);
unicode = 74;
},
{
color = 4;
glyphname = K;
lastChange = "2023-11-29 11:22:39 +0000";
layers = (
{
anchors = (
{
name = bottom;
pos = (412,0);
},
{
name = top;
pos = (357,716);
}
);
background = {
shapes = (
{
closed = 1;
nodes = (
(683,0,l),
(683,434,l),
(633,434,o),
(616,460,o),
(616,500,cs),
(616,564,ls),
(616,604,o),
(633,636,o),
(683,636,c),
(683,716,l),
(391,716,l),
(391,631,l),
(441,631,o),
(458,604,o),
(458,564,cs),
(458,500,ls),
(458,460,o),
(441,439,o),
(391,439,c),
(391,0,l)
);
},
{
closed = 1;
nodes = (
(333,0,l),
(333,439,l),
(283,439,o),
(266,460,o),
(266,500,cs),
(266,564,ls),
(266,604,o),
(283,631,o),
(333,631,c),
(333,716,l),
(41,716,l),
(41,636,l),
(91,636,o),
(108,604,o),
(108,564,cs),
(108,500,ls),
(108,460,o),
(91,434,o),
(41,434,c),
(41,0,l)
);
},
{
closed = 1;
nodes = (
(482,500,l),
(482,564,l),
(241,564,l),
(241,500,l)
);
},
{
pos = (-5,0);
ref = R;
}
);
};
guides = (
{
angle = 90;
pos = (298,525);
}
);
layerId = m01;
shapes = (
{
closed = 1;
nodes = (
(333,0,l),
(333,439,l),
(283,439,o),
(266,460,o),
(266,500,cs),
(266,564,ls),
(266,604,o),
(283,631,o),
(333,631,c),
(333,716,l),
(41,716,l),
(41,636,l),
(91,636,o),
(108,604,o),
(108,564,cs),
(108,500,ls),
(108,460,o),
(91,434,o),
(41,434,c),
(41,0,l)
);
},
{
closed = 1;
nodes = (
(685,435,l),
(666,435,ls),
(639,435,o),
(625,449,o),
(568,512,cs),
(479,610,l),
(353,534,l),
(416,467,l),
(427,454,o),
(417,439,o),
(399,439,cs),
(383,439,l),
(383,0,l),
(685,-1,l)
);
},
{
closed = 1;
nodes = (
(585,616,ls),
(601,623,o),
(620,635,o),
(649,635,cs),
(665,635,l),
(665,715,l),
(373,715,l),
(373,631,l),
(404,631,ls),
(420,631,o),
(423,616,o),
(403,607,cs),
(215,524,l),
(215,449,l)
);
}
);
width = 721;
}
);
metricLeft = H;
unicode = 75;
},
{
color = 2;
glyphname = L;
lastChange = "2023-11-29 11:08:39 +0000";
layers = (
{
anchors = (
{
name = bottom;
pos = (358,0);
},
{
name = center;
pos = (358,358);
},
{
name = top;
pos = (358,716);
},
{
name = topright;
pos = (680,716);
}
);
layerId = m01;
shapes = (
{
closed = 1;
nodes = (
(564,0,l),
(564,564,l),
(469,564,l),
(469,500,ls),
(469,460,o),
(452,439,o),
(402,439,c),
(266,439,l),
(266,564,l),
(266,604,o),
(283,636,o),
(333,636,c),
(333,716,l),
(40,716,l),
(40,636,l),
(90,636,o),
(108,604,o),
(108,564,cs),
(108,500,ls),
(108,460,o),
(91,434,o),
(41,434,c),
(40,0,l)
);
}
);
width = 614;
}
);
unicode = 76;
},
{
color = 2;
glyphname = M;
lastChange = "2023-11-29 11:35:41 +0000";
layers = (
{
anchors = (
{
name = bottom;
pos = (394,0);
},
{
name = top;
pos = (398,716);
}
);
layerId = m01;
shapes = (
{
closed = 1;
nodes = (
(357,0,l),
(357,434,l),
(333,433,ls),
(283,431,o),
(266,457,o),
(266,497,cs),
(266,608,l),
(384,476,l),
(499,608,l),
(499,499,ls),
(499,459,o),
(482,434,o),
(432,434,cs),
(408,434,l),
(408,0,l),
(724,-1,l),
(724,433,l),
(674,433,o),
(657,454,o),
(657,494,cs),
(657,568,ls),
(657,608,o),
(674,635,o),
(724,635,c),
(724,716,l),
(490,716,l),
(384,592,l),
(275,716,l),
(41,716,l),
(41,633,l),
(91,633,o),
(108,606,o),
(108,566,cs),
(108,492,ls),
(108,452,o),
(91,431,o),
(41,431,c),
(41,-3,l)
);
}
);
width = 765;
}
);
metricLeft = H;
metricRight = H;
unicode = 77;
},
{
color = 4;
glyphname = N;
lastChange = "2023-11-29 11:28:35 +0000";
layers = (
{
anchors = (
{
name = bottom;
pos = (361,0);
},
{
name = top;
pos = (361,716);
}
);
background = {
shapes = (
{
closed = 1;
nodes = (
(470,-10,ls),
(579,-10,o),
(659,69,o),
(659,176,cs),
(659,534,ls),
(659,641,o),
(579,720,o),
(470,720,cs),
(252,720,ls),
(143,720,o),
(63,641,o),
(63,534,cs),
(63,176,ls),
(63,69,o),
(143,-10,o),
(252,-10,cs)
);
},
{
closed = 1;
nodes = (
(306,437,ls),
(282,437,o),
(265,458,o),
(265,498,cs),
(265,567,ls),
(265,607,o),
(282,634,o),
(332,634,cs),
(390,634,ls),
(440,634,o),
(457,607,o),
(457,567,cs),
(457,498,ls),
(457,458,o),
(440,437,o),
(416,437,cs)
);
}
);
};
guides = (
{
pos = (445,445);
}
);
layerId = m01;
shapes = (
{
closed = 1;
nodes = (
(334,0,l),
(334,434,l),
(283,435,o),
(266,456,o),
(266,496,cs),
(267,646,l),
(200,670,l),
(490,388,l),
(434,536,l),
(423,496,o),
(453,487,o),
(451,471,cs),
(448,446,o),
(427,434,o),
(389,434,c),
(389,0,l),
(681,0,l),
(681,434,l),
(631,434,o),
(614,460,o),
(614,500,cs),
(614,564,ls),
(614,604,o),
(631,636,o),
(681,636,c),
(681,716,l),
(389,716,l),
(389,636,l),
(439,636,o),
(456,609,o),
(456,569,cs),
(456,535,l),
(267,716,l),
(41,716,l),
(41,636,l),
(94,636,o),
(111,607,o),
(111,567,cs),
(111,506,ls),
(111,463,o),
(102,440,o),
(41,440,c),
(41,0,l)
);
}
);
width = 722;
}
);
metricLeft = H;
metricRight = H;
unicode = 78;
},
{
color = 2;
glyphname = O;
lastChange = "2023-11-29 11:08:39 +0000";
layers = (
{
anchors = (
{
name = bottom;
pos = (334,0);
},
{
name = center;
pos = (334,358);
},
{
name = ogonek;
pos = (428,0);
},
{
name = top;
pos = (334,716);
},
{
name = topleft;
pos = (-3,716);
},
{
name = topright;
pos = (670,716);
}
);
layerId = m01;
shapes = (
{
closed = 1;
nodes = (
(436,-8,ls),
(545,-8,o),
(625,71,o),
(625,178,cs),
(625,536,ls),
(625,643,o),
(545,722,o),
(436,722,cs),
(218,722,ls),
(109,722,o),
(29,643,o),
(29,536,cs),
(29,178,ls),
(29,71,o),
(109,-8,o),
(218,-8,cs)
);
},
{
pos = (-15,5);
ref = cutdetail.part;
},
{
closed = 1;
nodes = (
(248,439,o),
(231,460,o),
(231,500,cs),
(231,569,ls),
(231,609,o),
(248,636,o),
(298,636,cs),
(356,636,ls),
(406,636,o),
(423,609,o),
(423,569,cs),
(423,500,ls),
(423,460,o),
(406,439,o),
(382,439,cs),
(272,439,ls)
);
}
);
width = 654;
},
{
anchors = (
{
name = bottom;
pos = (339,0);
},
{
name = center;
pos = (339,358);
},
{
name = ogonek;
pos = (433,0);
},
{
name = top;
pos = (339,716);
},
{
name = topleft;
pos = (2,716);
},
{
name = topright;
pos = (675,716);
}
);
associatedMasterId = m01;
attr = {
coordinates = (
1
);
};
layerId = "4E2C91DD-D868-4046-9F79-C43DDC1E8863";
name = "{1} Nov 22, 23 at 09:22";
shapes = (
{
closed = 1;
nodes = (
(475,-2,ls),
(579,-2,o),
(650,72,o),
(650,182,cs),
(650,534,ls),
(650,644,o),
(579,718,o),
(475,718,cs),
(223,718,ls),
(110,718,o),
(34,641,o),
(34,530,cs),
(34,186,ls),
(34,75,o),
(110,-2,o),
(223,-2,cs)
);
},
{
closed = 1;
nodes = (
(268,433,o),
(247,455,o),
(247,487,cs),
(247,578,ls),
(247,611,o),
(268,631,o),
(300,631,cs),
(342,631,l),
(384,631,ls),
(416,631,o),
(437,611,o),
(437,578,cs),
(437,487,ls),
(437,455,o),
(416,433,o),
(397,433,cs),
(287,433,ls)
);
},
{
closed = 1;
nodes = (
(397,433,l),
(372,433,o),
(354,442,o),
(342,487,c),
(330,442,o),
(312,433,o),
(287,433,c),
(287,408,l),
(396,408,l),
(396,433,l)
);
},
{
alignment = -1;
pos = (34,215);
ref = _part.cut;
},
{
alignment = -1;
pos = (650,215);
ref = _part.cut;
scale = (-1,1);
}
);
width = 684;
},
{
anchors = (
{
name = bottom;
pos = (339,0);
},
{
name = center;
pos = (339,358);
},
{
name = ogonek;
pos = (433,0);
},
{
name = top;
pos = (339,716);
},
{
name = topleft;
pos = (2,716);
},
{
name = topright;
pos = (675,716);
}
);
associatedMasterId = m01;
attr = {
coordinates = (
2
);
};
layerId = "9C7EF912-A48F-477E-8639-53BE45B2E462";
name = "Nov 22, 23 at 09:22";
shapes = (
{
closed = 1;
nodes = (
(475,-2,ls),
(579,-2,o),
(650,72,o),
(650,182,cs),
(650,534,ls),
(650,644,o),
(579,718,o),
(475,718,cs),
(223,718,ls),
(110,718,o),
(34,641,o),
(34,530,cs),
(34,186,ls),
(34,75,o),
(110,-2,o),
(223,-2,cs)
);
},
{
closed = 1;
nodes = (
(268,433,o),
(247,455,o),
(247,487,cs),
(247,578,ls),
(247,611,o),
(268,631,o),
(300,631,cs),
(342,631,l),
(384,631,ls),
(416,631,o),
(437,611,o),
(437,578,cs),
(437,487,ls),
(437,455,o),
(416,433,o),
(397,433,cs),
(287,433,ls)
);
},
{
closed = 1;
nodes = (
(397,433,l),
(372,433,o),
(354,442,o),
(342,487,c),
(330,442,o),
(312,433,o),
(287,433,c),
(287,408,l),
(396,408,l),
(396,433,l)
);
},
{
alignment = -1;
pos = (34,215);
ref = _part.cut;
},
{
alignment = -1;
pos = (650,215);
ref = _part.cut;
scale = (-1,1);
}
);
width = 684;
},
{
anchors = (
{
name = bottom;
pos = (339,0);
},
{
name = center;
pos = (339,358);
},
{
name = ogonek;
pos = (433,0);
},
{
name = top;
pos = (339,716);
},
{
name = topleft;
pos = (2,716);
},
{
name = topright;
pos = (675,716);
}
);
associatedMasterId = m01;
attr = {
coordinates = (
3
);
};
layerId = "9DB0A060-9F41-42DD-8F27-D26FDDA4FDB7";
name = "Nov 22, 23 at 09:22";
shapes = (
{
closed = 1;
nodes = (
(475,-2,ls),
(579,-2,o),
(650,72,o),
(650,182,cs),
(650,534,ls),
(650,644,o),
(579,718,o),
(475,718,cs),
(223,718,ls),
(110,718,o),
(34,641,o),
(34,530,cs),
(34,186,ls),
(34,75,o),
(110,-2,o),
(223,-2,cs)
);
},
{
closed = 1;
nodes = (
(268,433,o),
(247,455,o),
(247,487,cs),
(247,578,ls),
(247,611,o),
(268,631,o),
(300,631,cs),
(342,631,l),
(384,631,ls),
(416,631,o),
(437,611,o),
(437,578,cs),
(437,487,ls),
(437,455,o),
(416,433,o),
(397,433,cs),
(287,433,ls)
);
},
{
closed = 1;
nodes = (
(397,433,l),
(372,433,o),
(354,442,o),
(342,487,c),
(330,442,o),
(312,433,o),
(287,433,c),
(287,408,l),
(396,408,l),
(396,433,l)
);
},
{
alignment = -1;
pos = (34,215);
ref = _part.cut;
},
{
alignment = -1;
pos = (650,215);
ref = _part.cut;
scale = (-1,1);
}
);
width = 684;
},
{
anchors = (
{
name = bottom;
pos = (339,0);
},
{
name = center;
pos = (339,358);
},
{
name = ogonek;
pos = (433,0);
},
{
name = top;
pos = (339,716);
},
{
name = topleft;
pos = (2,716);
},
{
name = topright;
pos = (675,716);
}
);
associatedMasterId = m01;
attr = {
coordinates = (
4
);
};
layerId = "3CC9F90C-9565-4AC0-9650-45B92B3D0D50";
name = "Nov 22, 23 at 09:22";
shapes = (
{
closed = 1;
nodes = (
(475,-2,ls),
(579,-2,o),
(650,72,o),
(650,182,cs),
(650,534,ls),
(650,644,o),
(579,718,o),
(475,718,cs),
(223,718,ls),
(110,718,o),
(34,641,o),
(34,530,cs),
(34,186,ls),
(34,75,o),
(110,-2,o),
(223,-2,cs)
);
},
{
closed = 1;
nodes = (
(268,433,o),
(247,455,o),
(247,487,cs),
(247,578,ls),
(247,611,o),
(268,631,o),
(300,631,cs),
(342,631,l),
(384,631,ls),
(416,631,o),
(437,611,o),
(437,578,cs),
(437,487,ls),
(437,455,o),
(416,433,o),
(397,433,cs),
(287,433,ls)
);
},
{
closed = 1;
nodes = (
(397,433,l),
(372,433,o),
(354,442,o),
(342,487,c),
(330,442,o),
(312,433,o),
(287,433,c),
(287,408,l),
(396,408,l),
(396,433,l)
);
},
{
alignment = -1;
pos = (34,215);
ref = _part.cut;
},
{
alignment = -1;
pos = (650,215);
ref = _part.cut;
scale = (-1,1);
}
);
width = 684;
},
{
anchors = (
{
name = bottom;
pos = (339,0);
},
{
name = center;
pos = (339,358);
},
{
name = ogonek;
pos = (433,0);
},
{
name = top;
pos = (339,716);
},
{
name = topleft;
pos = (2,716);
},
{
name = topright;
pos = (675,716);
}
);
associatedMasterId = m01;
attr = {
coordinates = (
5
);
};
layerId = "CAC7B9D1-B252-4DF1-AAD4-4AFA57DDD19A";
name = "Nov 22, 23 at 09:22";
shapes = (
{
closed = 1;
nodes = (
(475,-2,ls),
(579,-2,o),
(650,72,o),
(650,182,cs),
(650,534,ls),
(650,644,o),
(579,718,o),
(475,718,cs),
(223,718,ls),
(110,718,o),
(34,641,o),
(34,530,cs),
(34,186,ls),
(34,75,o),
(110,-2,o),
(223,-2,cs)
);
},
{
closed = 1;
nodes = (
(268,433,o),
(247,455,o),
(247,487,cs),
(247,578,ls),
(247,611,o),
(268,631,o),
(300,631,cs),
(342,631,l),
(384,631,ls),
(416,631,o),
(437,611,o),
(437,578,cs),
(437,487,ls),
(437,455,o),
(416,433,o),
(397,433,cs),
(287,433,ls)
);
},
{
closed = 1;
nodes = (
(397,433,l),
(372,433,o),
(354,442,o),
(342,487,c),
(330,442,o),
(312,433,o),
(287,433,c),
(287,408,l),
(396,408,l),
(396,433,l)
);
},
{
alignment = -1;
pos = (34,215);
ref = _part.cut;
},
{
alignment = -1;
pos = (650,215);
ref = _part.cut;
scale = (-1,1);
}
);
width = 684;
},
{
anchors = (
{
name = bottom;
pos = (339,0);
},
{
name = center;
pos = (339,358);
},
{
name = ogonek;
pos = (433,0);
},
{
name = top;
pos = (339,716);
},
{
name = topleft;
pos = (2,716);
},
{
name = topright;
pos = (675,716);
}
);
associatedMasterId = m01;
attr = {
coordinates = (
6
);
};
layerId = "F5CA9D1D-79C7-48AE-A2EE-8FCBB849C7F9";
name = "Nov 22, 23 at 09:22";
shapes = (
{
closed = 1;
nodes = (
(475,-2,ls),
(579,-2,o),
(650,72,o),
(650,182,cs),
(650,534,ls),
(650,644,o),
(579,718,o),
(475,718,cs),
(223,718,ls),
(110,718,o),
(34,641,o),
(34,530,cs),
(34,186,ls),
(34,75,o),
(110,-2,o),
(223,-2,cs)
);
},
{
closed = 1;
nodes = (
(268,433,o),
(247,455,o),
(247,487,cs),
(247,578,ls),
(247,611,o),
(268,631,o),
(300,631,cs),
(342,631,l),
(384,631,ls),
(416,631,o),
(437,611,o),
(437,578,cs),
(437,487,ls),
(437,455,o),
(416,433,o),
(397,433,cs),
(287,433,ls)
);
},
{
closed = 1;
nodes = (
(397,433,l),
(372,433,o),
(354,442,o),
(342,487,c),
(330,442,o),
(312,433,o),
(287,433,c),
(287,408,l),
(396,408,l),
(396,433,l)
);
},
{
alignment = -1;
pos = (34,215);
ref = _part.cut;
},
{
alignment = -1;
pos = (650,215);
ref = _part.cut;
scale = (-1,1);
}
);
width = 684;
}
);
unicode = 79;
},
{
color = 4;
glyphname = P;
lastChange = "2023-11-29 11:22:09 +0000";
layers = (
{
anchors = (
{
name = bottom;
pos = (348,0);
},
{
name = top;
pos = (348,716);
}
);
layerId = m01;
shapes = (
{
closed = 1;
nodes = (
(481,433,l),
(343,434,ls),
(293,434,o),
(276,460,o),
(276,497,c),
(486,497,ls),
(523,497,o),
(601,518,o),
(601,605,cs),
(601,711,o),
(512,716,o),
(472,716,cs),
(41,716,l),
(41,636,l),
(91,636,o),
(108,609,o),
(108,569,cs),
(108,495,ls),
(108,455,o),
(91,434,o),
(41,434,c),
(41,0,l),
(481,-1,l)
);
},
{
closed = 1;
nodes = (
(276,636,l),
(381,636,ls),
(409,636,o),
(422,620,o),
(422,599,cs),
(422,574,o),
(406,561,o),
(380,561,cs),
(276,561,l)
);
}
);
width = 596;
}
);
metricLeft = H;
unicode = 80;
},
{
color = 4;
glyphname = Q;
lastChange = "2023-11-29 11:20:29 +0000";
layers = (
{
anchors = (
{
name = bottom;
pos = (352,0);
},
{
name = center;
pos = (334,358);
},
{
name = ogonek;
pos = (428,0);
},
{
name = top;
pos = (352,716);
},
{
name = topleft;
pos = (-3,716);
},
{
name = topright;
pos = (670,716);
}
);
layerId = m01;
shapes = (
{
closed = 1;
nodes = (
(436,-8,ls),
(545,-8,o),
(625,71,o),
(625,178,cs),
(625,536,ls),
(625,643,o),
(545,722,o),
(436,722,cs),
(218,722,ls),
(109,722,o),
(29,643,o),
(29,536,cs),
(29,178,ls),
(29,71,o),
(109,-8,o),
(218,-8,cs)
);
},
{
closed = 1;
nodes = (
(494,-134,l),
(494,-54,l),
(423,-54,ls),
(388,-54,o),
(364,-42,o),
(364,-8,c),
(364,82,l),
(269,82,l),
(269,-7,l),
(269,-94,o),
(325,-134,o),
(424,-134,c)
);
},
{
pos = (-15,5);
ref = cutdetail.part;
},
{
closed = 1;
nodes = (
(248,439,o),
(231,460,o),
(231,500,cs),
(231,569,ls),
(231,609,o),
(248,636,o),
(298,636,cs),
(356,636,ls),
(406,636,o),
(423,609,o),
(423,569,cs),
(423,500,ls),
(423,460,o),
(406,439,o),
(382,439,cs),
(272,439,ls)
);
}
);
width = 654;
}
);
metricLeft = O;
metricRight = O;
unicode = 81;
},
{
color = 2;
glyphname = R;
lastChange = "2023-11-29 11:08:39 +0000";
layers = (
{
layerId = m01;
shapes = (
{
closed = 1;
nodes = (
(683,-6,l),
(683,434,l),
(565,434,o),
(627,540,o),
(468,540,c),
(468,543,l),
(486,543,ls),
(523,543,o),
(601,560,o),
(601,628,c),
(601,712,o),
(512,716,o),
(472,716,c),
(41,716,l),
(41,636,l),
(91,636,o),
(108,609,o),
(108,569,cs),
(108,495,ls),
(108,455,o),
(91,434,o),
(41,434,c),
(41,0,l),
(333,0,l),
(333,439,l),
(283,439,o),
(266,460,o),
(266,500,cs),
(266,507,l),
(326,507,ls),
(371,507,o),
(391,478,o),
(391,434,cs),
(392,119,ls),
(392,46,o),
(425,-6,o),
(539,-6,cs)
);
},
{
closed = 1;
nodes = (
(266,636,l),
(371,636,ls),
(399,636,o),
(412,622,o),
(412,604,cs),
(412,582,o),
(396,571,o),
(370,571,cs),
(266,571,l)
);
}
);
width = 713;
}
);
metricLeft = H;
unicode = 82;
},
{
color = 2;
glyphname = S;
lastChange = "2023-11-29 12:03:02 +0000";
layers = (
{
anchors = (
{
name = bottom;
pos = (322,0);
},
{
name = top;
pos = (322,716);
}
);
layerId = m01;
shapes = (
{
closed = 1;
nodes = (
(406,0,ls),
(515,0,o),
(595,77,o),
(595,184,cs),
(595,356,ls),
(595,514,o),
(505,556,o),
(338,561,cs),
(271,563,ls),
(227,564,o),
(214,583,o),
(214,602,cs),
(214,624,o),
(229,636,o),
(276,636,cs),
(323,636,ls),
(373,636,o),
(390,615,o),
(390,591,c),
(574,591,l),
(574,664,o),
(510,716,o),
(423,716,cs),
(178,716,ls),
(111,716,o),
(30,699,o),
(30,612,cs),
(30,531,o),
(98,500,o),
(141,498,cs),
(349,490,ls),
(378,489,o),
(397,477,o),
(397,462,cs),
(397,445,o),
(387,440,o),
(349,440,cs),
(30,440,l),
(30,0,l)
);
}
);
width = 625;
}
);
unicode = 83;
},
{
color = 2;
glyphname = T;
lastChange = "2023-11-29 11:08:39 +0000";
layers = (
{
layerId = m01;
shapes = (
{
closed = 1;
nodes = (
(503,0,l),
(503,434,l),
(424,434,ls),
(374,434,o),
(357,460,o),
(357,500,cs),
(357,636,l),
(382,636,ls),
(432,636,o),
(449,603,o),
(449,563,cs),
(449,511,l),
(539,511,l),
(539,716,l),
(17,716,l),
(17,511,l),
(107,511,l),
(107,564,ls),
(107,604,o),
(124,636,o),
(174,636,cs),
(199,636,l),
(199,500,ls),
(199,460,o),
(182,439,o),
(132,439,cs),
(53,439,l),
(53,0,l)
);
}
);
width = 556;
}
);
unicode = 84;
},
{
color = 2;
glyphname = U;
lastChange = "2023-11-29 11:30:00 +0000";
layers = (
{
layerId = m01;
shapes = (
{
closed = 1;
nodes = (
(364,-8,ls),
(462,-8,o),
(496,48,o),
(496,130,cs),
(496,192,l),
(539,192,o),
(549,168,o),
(554,133,cs),
(574,0,l),
(658,0,l),
(658,434,l),
(608,434,o),
(591,460,o),
(591,500,cs),
(591,564,ls),
(591,604,o),
(608,636,o),
(658,636,c),
(658,716,l),
(376,716,l),
(376,631,l),
(427,634,o),
(443,604,o),
(443,564,cs),
(443,495,ls),
(443,455,o),
(426,434,o),
(402,434,cs),
(302,434,ls),
(278,434,o),
(261,455,o),
(261,495,cs),
(261,564,ls),
(261,604,o),
(278,628,o),
(328,631,c),
(328,716,l),
(36,716,l),
(36,636,l),
(86,636,o),
(103,604,o),
(103,564,cs),
(103,500,ls),
(103,460,o),
(86,434,o),
(36,434,c),
(36,178,ls),
(36,71,o),
(116,-8,o),
(225,-8,cs)
);
},
{
pos = (37,0);
ref = cutdetail.part;
scale = (0.9224,1);
}
);
width = 699;
}
);
metricRight = H;
unicode = 85;
},
{
color = 2;
glyphname = V;
lastChange = "2023-11-29 11:08:39 +0000";
layers = (
{
layerId = m01;
shapes = (
{
closed = 1;
nodes = (
(596,434,l),
(514,434,o),
(477,470,o),
(518,544,cs),
(541,585,ls),
(564,624,o),
(584,636,o),
(631,636,c),
(631,716,l),
(382,716,l),
(382,631,l),
(424,631,o),
(451,611,o),
(423,565,cs),
(353,451,l),
(282,564,ls),
(258,603,o),
(272,631,o),
(322,631,c),
(322,716,l),
(6,716,l),
(6,636,l),
(16,636,ls),
(64,636,o),
(93,601,o),
(106,571,cs),
(129,519,ls),
(156,458,o),
(93,434,o),
(50,434,c),
(133,0,l),
(502,-1,l)
);
}
);
width = 637;
}
);
unicode = 86;
},
{
color = 2;
glyphname = W;
lastChange = "2023-11-29 11:55:39 +0000";
layers = (
{
anchors = (
{
name = bottom;
pos = (316,0);
},
{
name = top;
pos = (316,716);
}
);
background = {
shapes = (
{
closed = 1;
nodes = (
(893,433,l),
(850,433,o),
(778,462,o),
(816,538,cs),
(838,582,ls),
(853,613,o),
(875,636,o),
(905,636,cs),
(924,636,l),
(924,715,l),
(700,715,l),
(700,630,l),
(748,630,o),
(755,607,o),
(732,564,cs),
(603,335,l),
(760,336,l),
(629,564,ls),
(602,607,o),
(621,630,o),
(653,630,c),
(653,715,l),
(351,716,l),
(353,636,l),
(400,636,o),
(442,614,o),
(465,574,cs),
(489,533,ls),
(521,478,o),
(539,434,o),
(483,434,c),
(524,0,l),
(829,-1,l)
);
},
{
closed = 1;
nodes = (
(412,0,l),
(451,434,l),
(393,434,o),
(407,478,o),
(447,543,cs),
(468,584,ls),
(490,623,o),
(500,636,o),
(547,636,c),
(547,716,l),
(324,716,l),
(324,631,l),
(368,631,o),
(377,607,o),
(354,564,cs),
(221,337,l),
(386,335,l),
(252,564,ls),
(228,607,o),
(247,631,o),
(281,631,c),
(281,716,l),
(6,716,l),
(6,636,l),
(26,636,ls),
(64,636,o),
(84,609,o),
(101,572,cs),
(116,538,ls),
(155,451,o),
(83,434,o),
(40,434,c),
(117,0,l)
);
}
);
};
layerId = m01;
shapes = (
{
closed = 1;
nodes = (
(865,433,l),
(822,433,o),
(750,462,o),
(788,538,cs),
(810,582,ls),
(825,613,o),
(847,636,o),
(877,636,cs),
(896,636,l),
(896,716,l),
(670,716,l),
(670,630,l),
(718,630,o),
(727,607,o),
(704,564,cs),
(575,335,l),
(732,336,l),
(601,564,ls),
(574,607,o),
(595,630,o),
(627,630,c),
(627,716,l),
(324,716,l),
(324,636,l),
(373,636,o),
(430,614,o),
(453,574,cs),
(477,533,ls),
(509,478,o),
(527,434,o),
(471,434,c),
(512,0,l),
(801,-1,l)
);
},
{
closed = 1;
nodes = (
(412,0,l),
(451,434,l),
(393,434,o),
(407,478,o),
(447,543,cs),
(468,584,ls),
(490,623,o),
(500,636,o),
(547,636,c),
(547,716,l),
(324,716,l),
(324,631,l),
(369,631,o),
(377,607,o),
(354,564,cs),
(221,337,l),
(386,335,l),
(252,564,ls),
(228,607,o),
(247,631,o),
(281,631,c),
(281,716,l),
(6,716,l),
(6,636,l),
(26,636,ls),
(64,636,o),
(84,609,o),
(101,572,cs),
(116,538,ls),
(155,451,o),
(83,434,o),
(40,434,c),
(117,0,l)
);
}
);
width = 902;
}
);
unicode = 87;
},
{
glyphname = X;
lastChange = "2023-11-29 11:52:21 +0000";
layers = (
{
background = {
shapes = (
{
closed = 1;
nodes = (
(667,0,l),
(667,434,l),
(648,434,ls),
(634,434,o),
(612,440,o),
(593,451,cs),
(315,614,ls),
(306,619,o),
(306,631,o),
(316,631,cs),
(337,631,l),
(337,716,l),
(36,716,l),
(36,636,l),
(47,636,l),
(69,636,o),
(105,615,o),
(116,608,cs),
(383,452,ls),
(396,444,o),
(390,434,o),
(377,434,cs),
(359,434,l),
(359,0,l)
);
},
{
closed = 1;
nodes = (
(309,0,l),
(309,436,l),
(275,436,ls),
(258,436,o),
(259,450,o),
(272,458,cs),
(385,530,l),
(257,530,l),
(119,447,ls),
(102,437,o),
(74,434,o),
(38,434,c),
(38,0,l)
);
},
{
closed = 1;
nodes = (
(432,540,l),
(570,619,ls),
(588,629,o),
(606,635,o),
(636,636,c),
(650,636,l),
(650,716,l),
(387,716,l),
(387,631,l),
(407,631,ls),
(429,631,o),
(426,615,o),
(412,607,cs),
(291,540,l)
);
}
);
};
layerId = m01;
shapes = (
{
closed = 1;
nodes = (
(667,0,l),
(667,434,l),
(648,434,ls),
(634,434,o),
(612,440,o),
(593,451,cs),
(437,543,l),
(570,619,ls),
(588,629,o),
(606,635,o),
(636,636,cs),
(650,636,l),
(650,716,l),
(387,716,l),
(387,631,l),
(407,631,ls),
(429,631,o),
(426,615,o),
(412,607,cs),
(368,583,l),
(315,614,ls),
(306,619,o),
(306,631,o),
(316,631,cs),
(337,631,l),
(337,716,l),
(36,716,l),
(36,636,l),
(47,636,ls),
(69,636,o),
(105,615,o),
(116,608,cs),
(253,528,l),
(119,447,ls),
(102,437,o),
(74,434,o),
(38,434,c),
(38,0,l),
(309,0,l),
(309,436,l),
(275,436,ls),
(258,436,o),
(259,450,o),
(272,458,cs),
(320,489,l),
(383,452,ls),
(396,444,o),
(390,434,o),
(377,434,cs),
(359,434,l),
(359,0,l)
);
}
);
width = 703;
}
);
unicode = 88;
},
{
color = 2;
glyphname = Y;
lastChange = "2023-11-29 11:21:09 +0000";
layers = (
{
layerId = m01;
shapes = (
{
closed = 1;
nodes = (
(466,0,ls),
(575,0,o),
(655,79,o),
(655,186,cs),
(655,434,l),
(605,434,o),
(588,460,o),
(588,500,cs),
(588,564,ls),
(588,604,o),
(605,636,o),
(655,636,c),
(655,716,l),
(363,716,l),
(363,631,l),
(407,631,o),
(427,610,o),
(427,575,cs),
(427,488,ls),
(427,464,o),
(399,440,o),
(363,440,cs),
(50,439,l),
(50,-1,l)
);
},
{
closed = 1;
nodes = (
(480,560,l),
(263,578,l),
(263,613,o),
(279,631,o),
(313,631,c),
(313,716,l),
(30,716,l),
(30,636,l),
(81,636,o),
(99,607,o),
(99,567,cs),
(99,518,l),
(480,486,l)
);
}
);
width = 691;
}
);
unicode = 89;
},
{
color = 2;
glyphname = Z;
lastChange = "2023-11-29 11:08:39 +0000";
layers = (
{
anchors = (
{
name = bottom;
pos = (299,0);
},
{
name = center;
pos = (299,358);
},
{
name = ogonek;
pos = (-34,0);
},
{
name = top;
pos = (299,716);
},
{
name = topright;
pos = (556,716);
}
);
layerId = m01;
shapes = (
{
closed = 1;
nodes = (
(574,0,l),
(574,499,l),
(481,499,l),
(481,459,o),
(463,438,o),
(421,438,cs),
(273,439,l),
(574,635,l),
(574,715,l),
(37,716,l),
(37,569,l),
(131,569,l),
(131,609,o),
(148,636,o),
(200,636,cs),
(338,635,l),
(37,434,l),
(36,0,l)
);
}
);
width = 610;
}
);
unicode = 90;
},
{
color = 4;
glyphname = J.ss01;
lastChange = "2023-11-21 20:01:09 +0000";
layers = (
{
layerId = m01;
shapes = (
{
closed = 1;
nodes = (
(310,0,ls),
(396,0,o),
(494,54,o),
(494,183,cs),
(494,440,l),
(436,440,o),
(427,463,o),
(427,506,cs),
(427,567,ls),
(427,607,o),
(443,636,o),
(494,636,c),
(494,716,l),
(202,716,l),
(202,631,l),
(247,631,o),
(267,613,o),
(267,578,cs),
(267,521,ls),
(267,483,o),
(258,434,o),
(200,434,c),
(83,434,l),
(18,434,l),
(18,0,l)
);
}
);
width = 530;
}
);
},
{
color = 4;
glyphname = R.ss01;
lastChange = "2023-11-28 10:56:20 +0000";
layers = (
{
background = {
shapes = (
{
closed = 0;
nodes = (
(688,434,l),
(570,434,o),
(608,526,o),
(526,526,c)
);
},
{
closed = 0;
nodes = (
(392,564,l),
(273,564,l)
);
},
{
closed = 1;
nodes = (
(273,636,l),
(392,636,ls),
(440,636,o),
(452,616,o),
(452,600,cs),
(452,582,o),
(440,564,o),
(392,564,cs),
(273,564,l)
);
},
{
closed = 1;
nodes = (
(396,74,o),
(471,0,o),
(584,0,cs),
(688,0,l),
(688,434,l),
(570,434,o),
(608,526,o),
(526,526,c),
(526,528,l),
(589,528,o),
(618,575,o),
(618,616,cs),
(618,684,o),
(555,716,o),
(465,716,cs),
(46,716,l),
(46,636,l),
(97,636,o),
(114,611,o),
(114,571,cs),
(114,510,ls),
(114,467,o),
(104,434,o),
(46,434,c),
(46,0,l),
(338,0,l),
(338,434,l),
(293,434,o),
(273,457,o),
(273,501,c),
(330,501,ls),
(375,501,o),
(395,478,o),
(395,434,cs),
(396,185,ls)
);
}
);
};
layerId = m01;
shapes = (
{
closed = 1;
nodes = (
(273,636,l),
(392,636,ls),
(440,636,o),
(452,616,o),
(452,600,cs),
(452,582,o),
(440,564,o),
(392,564,cs),
(273,564,l)
);
},
{
closed = 1;
nodes = (
(340,490,ls),
(372,490,o),
(382,469,o),
(382,434,cs),
(383,185,ls),
(383,74,o),
(458,0,o),
(571,0,cs),
(688,0,l),
(688,434,l),
(570,434,o),
(608,526,o),
(526,526,c),
(526,528,l),
(589,528,o),
(618,575,o),
(618,616,cs),
(618,684,o),
(555,716,o),
(465,716,cs),
(46,716,l),
(46,636,l),
(97,636,o),
(114,611,o),
(114,571,cs),
(114,510,ls),
(114,467,o),
(104,434,o),
(46,434,c),
(46,0,l),
(338,0,l),
(338,434,l),
(309,434,ls),
(290,434,o),
(272,443,o),
(272,462,cs),
(272,476,o),
(283,490,o),
(309,490,cs)
);
}
);
width = 724;
}
);
},
{
color = 2;
glyphname = X.ss01;
lastChange = "2023-11-29 11:34:05 +0000";
layers = (
{
anchors = (
{
name = bottom;
pos = (401,0);
},
{
name = top;
pos = (401,716);
}
);
background = {
shapes = (
{
closed = 1;
nodes = (
(415,603,l),
(415,621,o),
(398,631,o),
(370,631,c),
(370,716,l),
(652,716,l),
(652,636,l),
(621,636,o),
(589,613,o),
(563,600,cs),
(283,458,l),
(283,440,o),
(296,434,o),
(322,434,c),
(322,0,l),
(30,0,l),
(30,440,l),
(76,440,o),
(129,455,o),
(168,475,cs)
);
},
{
closed = 1;
nodes = (
(573,455,o),
(616,440,o),
(662,440,c),
(662,0,l),
(370,0,l),
(370,434,l),
(396,434,o),
(409,440,o),
(409,458,c),
(166,594,ls),
(93,636,o),
(92,636,o),
(40,636,c),
(40,716,l),
(322,716,l),
(322,631,l),
(294,631,o),
(287,621,o),
(287,603,c),
(534,475,ls)
);
}
);
};
layerId = m01;
shapes = (
{
closed = 1;
nodes = (
(653,0,l),
(653,434,l),
(638,434,ls),
(621,434,o),
(604,441,o),
(592,447,cs),
(284,610,ls),
(271,618,o),
(273,632,o),
(291,632,c),
(317,632,l),
(317,716,l),
(36,716,l),
(36,636,l),
(52,636,ls),
(71,636,o),
(94,623,o),
(109,615,cs),
(397,463,ls),
(423,450,o),
(411,438,o),
(398,438,cs),
(373,438,l),
(373,0,l)
);
},
{
closed = 1;
nodes = (
(326,0,l),
(326,438,l),
(291,438,ls),
(278,438,o),
(266,449,o),
(292,463,cs),
(579,615,ls),
(594,623,o),
(617,636,o),
(636,636,cs),
(652,636,l),
(652,716,l),
(371,716,l),
(371,632,l),
(397,632,l),
(415,632,o),
(417,617,o),
(404,610,cs),
(97,447,ls),
(85,441,o),
(68,434,o),
(51,434,cs),
(36,434,l),
(36,0,l)
);
}
);
width = 689;
}
);
},
{
color = 0;
export = 0;
glyphname = U.ss01;
lastChange = "2023-10-27 15:08:55 +0000";
layers = (
{
guides = (
{
angle = 90;
pos = (470,482);
}
);
layerId = m01;
shapes = (
{
closed = 1;
nodes = (
(273,506,l),
(273,564,l),
(273,575,ls),
(273,610,o),
(293,631,o),
(338,631,c),
(338,716,l),
(46,716,l),
(46,636,l),
(97,636,o),
(113,607,o),
(113,567,cs),
(113,506,ls),
(113,463,o),
(104,440,o),
(46,440,c),
(46,184,ls),
(46,73,o),
(122,-4,o),
(235,-4,cs),
(271,-4,ls),
(384,-4,o),
(460,40,o),
(460,151,c),
(470,151,l),
(470,40,o),
(536,-4,o),
(649,-4,c),
(688,-4,l),
(688,440,l),
(630,440,o),
(620,463,o),
(620,506,cs),
(620,567,ls),
(620,607,o),
(637,636,o),
(688,636,c),
(688,716,l),
(406,716,l),
(406,631,l),
(450,631,o),
(470,610,o),
(470,575,cs),
(470,564,l),
(470,506,l),
(470,482,ls),
(470,444,o),
(449,434,o),
(423,434,cs),
(402,434,ls),
(387,434,o),
(382,435,o),
(372,453,c),
(362,435,o),
(357,434,o),
(342,434,cs),
(326,434,ls),
(295,434,o),
(273,449,o),
(273,482,cs)
);
}
);
width = 734;
}
);
},
{
color = 0;
export = 0;
glyphname = V.ss01;
lastChange = "2023-11-21 20:05:57 +0000";
layers = (
{
anchors = (
{
name = bottom;
pos = (385,0);
},
{
name = top;
pos = (385,716);
}
);
layerId = m01;
shapes = (
{
closed = 1;
nodes = (
(32,716,l),
(32,650,l),
(79,646,o),
(206,555,o),
(206,456,cs),
(206,408,o),
(188,373,o),
(98,367,c),
(193,0,l),
(539,0,l),
(674,359,l),
(636,359,o),
(574,385,o),
(574,501,cs),
(574,555,o),
(619,627,o),
(736,627,c),
(737,716,l),
(438,716,l),
(438,656,l),
(481,656,o),
(514,625,o),
(514,597,cs),
(514,558,o),
(498,533,o),
(478,501,cs),
(428,421,l),
(376,508,ls),
(356,541,o),
(333,576,o),
(333,612,cs),
(333,638,o),
(362,656,o),
(393,656,c),
(393,716,l)
);
}
);
width = 769;
}
);
},
{
color = 0;
export = 0;
glyphname = Y.ss01;
lastChange = "2023-11-21 20:05:57 +0000";
layers = (
{
backgroundImage = {
imagePath = "../../../../NSIRD_screencaptureui_iWUzN2/Screenshot 2023-11-03 at 8.34.04 PM.png";
};
layerId = m01;
shapes = (
{
closed = 1;
nodes = (
(597,0,l),
(597,440,l),
(469,440,ls),
(429,440,o),
(418,463,o),
(418,488,c),
(472,509,o),
(502,521,o),
(551,568,cs),
(587,602,o),
(600,636,o),
(656,636,c),
(656,716,l),
(380,716,l),
(380,631,l),
(412,631,ls),
(429,631,o),
(440,620,o),
(440,609,cs),
(440,589,o),
(385,557,o),
(308,538,c),
(393,545,l),
(312,565,o),
(267,589,o),
(267,609,cs),
(267,620,o),
(278,631,o),
(295,631,cs),
(327,631,l),
(327,716,l),
(6,716,l),
(6,636,l),
(62,636,o),
(87,602,o),
(118,568,cs),
(163,518,o),
(187,509,o),
(240,488,c),
(240,463,o),
(245,440,o),
(189,440,cs),
(65,440,l),
(65,0,l)
);
}
);
width = 662;
}
);
},
{
color = 0;
export = 0;
glyphname = N.ss02;
lastChange = "2023-11-27 20:05:57 +0000";
layers = (
{
layerId = m01;
shapes = (
{
closed = 1;
nodes = (
(311,0,l),
(311,434,l),
(224,434,o),
(178,459,o),
(178,506,cs),
(178,554,l),
(369,434,l),
(369,0,l),
(617,0,l),
(617,440,l),
(559,440,o),
(550,463,o),
(550,506,cs),
(550,567,ls),
(550,607,o),
(566,636,o),
(617,636,c),
(617,716,l),
(420,716,l),
(420,631,l),
(465,631,o),
(485,615,o),
(485,580,cs),
(485,550,l),
(221,716,l),
(47,716,l),
(46,636,l),
(97,636,o),
(113,607,o),
(113,567,cs),
(113,506,ls),
(113,463,o),
(104,440,o),
(46,440,c),
(46,0,l)
);
},
{
closed = 0;
nodes = (
(369,0,l)
);
}
);
width = 600;
}
);
},
{
color = 0;
export = 0;
glyphname = Y.ss02;
lastChange = "2023-11-21 20:05:57 +0000";
layers = (
{
layerId = m01;
shapes = (
{
closed = 1;
nodes = (
(503,0,ls),
(607,0,o),
(678,74,o),
(678,184,cs),
(678,440,l),
(620,440,o),
(610,463,o),
(610,506,cs),
(610,567,ls),
(610,607,o),
(627,636,o),
(678,636,c),
(678,716,l),
(386,716,l),
(386,631,l),
(430,631,o),
(450,610,o),
(450,575,cs),
(450,519,l),
(495,561,l),
(264,578,l),
(264,616,o),
(286,631,o),
(328,631,c),
(328,716,l),
(36,716,l),
(36,542,l),
(495,502,l),
(450,551,l),
(450,488,ls),
(450,463,o),
(422,440,o),
(386,440,cs),
(36,440,l),
(36,0,l)
);
}
);
width = 714;
}
);
},
{
glyphname = zero;
layers = (
{
background = {
shapes = (
{
closed = 1;
nodes = (
(510,0,ls),
(600,0,o),
(621,67,o),
(622,154,cs),
(627,546,ls),
(628,630,o),
(578,716,o),
(490,716,cs),
(207,716,ls),
(98,716,o),
(32,670,o),
(32,559,cs),
(32,123,ls),
(30,58,o),
(107,0,o),
(178,0,cs)
);
},
{
closed = 1;
nodes = (
(410,414,o),
(387,427,o),
(389,467,cs),
(394,566,ls),
(395,587,o),
(397,608,o),
(425,608,cs),
(518,608,ls),
(542,608,o),
(555,594,o),
(557,554,cs),
(561,453,ls),
(562,434,o),
(540,415,o),
(517,415,cs),
(438,414,ls)
);
}
);
};
layerId = m01;
shapes = (
{
closed = 1;
nodes = (
(510,-6,ls),
(600,-6,o),
(630,61,o),
(630,148,cs),
(630,561,ls),
(630,643,o),
(578,716,o),
(490,716,cs),
(207,716,ls),
(98,716,o),
(30,670,o),
(30,559,cs),
(30,117,ls),
(30,52,o),
(107,-6,o),
(178,-6,cs)
);
},
{
closed = 1;
nodes = (
(272,434,o),
(249,447,o),
(249,487,cs),
(249,589,ls),
(249,610,o),
(259,631,o),
(287,631,cs),
(380,631,ls),
(404,631,o),
(424,617,o),
(424,577,cs),
(424,473,ls),
(424,454,o),
(402,435,o),
(379,435,cs),
(300,434,ls)
);
}
);
width = 660;
}
);
unicode = 48;
},
{
glyphname = one;
layers = (
{
layerId = m01;
shapes = (
{
closed = 1;
nodes = (
(218,581,l),
(218,466,ls),
(218,446,o),
(208,434,o),
(180,434,cs),
(30,434,l),
(30,-1,l),
(630,-1,l),
(630,434,l),
(491,434,ls),
(463,434,o),
(453,446,o),
(453,466,cs),
(452,716,l),
(218,716,l),
(218,680,o),
(174,631,o),
(117,631,c),
(117,581,l)
);
}
);
width = 660;
}
);
unicode = 49;
},
{
glyphname = two;
layers = (
{
background = {
shapes = (
{
closed = 1;
nodes = (
(249,441,o),
(321,482,o),
(395,523,cs),
(433,544,o),
(514,574,o),
(514,623,cs),
(514,673,o),
(461,716,o),
(395,716,cs),
(292,716,o),
(316,716,o),
(200,716,cs),
(101,716,o),
(38,659,o),
(38,584,c),
(157,574,l),
(157,601,o),
(174,631,o),
(214,631,cs),
(229,631,o),
(276,631,o),
(303,631,cs),
(339,631,o),
(353,623,o),
(353,604,cs),
(353,578,o),
(262,544,o),
(223,526,cs),
(187,509,o),
(65,450,o),
(24,434,c),
(24,0,l),
(541,-1,l),
(543,498,l),
(433,498,l),
(433,475,o),
(429,434,o),
(378,434,cs),
(233,434,l)
);
}
);
};
layerId = m01;
shapes = (
{
closed = 1;
nodes = (
(630,482,l),
(412,482,l),
(412,466,ls),
(412,442,o),
(398,434,o),
(361,434,cs),
(233,434,l),
(563,568,ls),
(601,583,o),
(620,608.009,o),
(620,636,cs),
(620,697,o),
(564,716,o),
(454,716,cs),
(206,716,ls),
(96,716,o),
(40,697,o),
(40,598,cs),
(40,581,l),
(248,581,l),
(248,598,ls),
(248,618,o),
(258,631,o),
(286,631,cs),
(374,631,ls),
(402,631,o),
(412,624,o),
(412,611,cs),
(412,599,o),
(395,591,o),
(387,587,c),
(30,434,l),
(30,-7,l),
(630,-7,l)
);
}
);
width = 660;
}
);
unicode = 50;
},
{
glyphname = three;
layers = (
{
background = {
shapes = (
{
closed = 1;
nodes = (
(416,0,ls),
(498,0,o),
(567,70,o),
(567,148,cs),
(567,393,ls),
(567,501,o),
(465,528,o),
(414,531,c),
(414,531,l),
(467,535,o),
(526,568,o),
(524,623,cs),
(522,678,o),
(459,716,o),
(389,716,cs),
(349,716,o),
(218,716,o),
(160,716,cs),
(55,716,o),
(46,631,o),
(46,588,c),
(165,582,l),
(165,623,o),
(190,631,o),
(216,631,cs),
(285,631,o),
(309,631,o),
(326,631,cs),
(349,631,o),
(365,620,o),
(365,599,cs),
(365,564,o),
(340,558,o),
(277,558,c),
(277,506,l),
(316,506,o),
(365,509,o),
(365,476,cs),
(365,450,o),
(349,434,o),
(301,434,cs),
(201,434,ls),
(159,434,o),
(153,446,o),
(153,497,c),
(32,497,l),
(32,0,l)
);
}
);
};
layerId = m01;
shapes = (
{
closed = 1;
nodes = (
(374,501,ls),
(402,501,o),
(412,488,o),
(412,468,cs),
(412,444,o),
(398,434,o),
(361,434,cs),
(299,434,ls),
(262,434,o),
(248,442,o),
(248,466,cs),
(248,482,l),
(30,482,l),
(30,162,ls),
(30,51,o),
(115,-7,o),
(186,-7,cs),
(474,-7,ls),
(545,-7,o),
(630,51,o),
(630,145,cs),
(630,405,ls),
(630,506,o),
(576,525,o),
(529,525,cs),
(583,525,o),
(620,543,o),
(620,592,cs),
(620,697,o),
(564,716,o),
(454,716,cs),
(206,716,ls),
(96,716,o),
(40,697,o),
(40,598,cs),
(40,581,l),
(248,581,l),
(248,598,ls),
(248,618,o),
(258,631,o),
(286,631,cs),
(374,631,ls),
(402,631,o),
(412,618,o),
(412,598,cs),
(412,574,o),
(398,564,o),
(361,564,cs),
(286,564,l),
(286,501,l)
);
}
);
width = 660;
}
);
unicode = 51;
},
{
color = 4;
glyphname = four;
layers = (
{
background = {
shapes = (
{
closed = 1;
nodes = (
(655,0,l),
(655,434,l),
(529,434,ls),
(496,434,o),
(474,439,o),
(474,461,cs),
(474,484,o),
(491,489,o),
(529,489,cs),
(655,489,l),
(655,583,l),
(474,583,l),
(474,716,l),
(247,716,l),
(247,634,o),
(178,583,o),
(64,583,c),
(64,489,l),
(182,489,ls),
(219,489,o),
(236,484,o),
(236,461,cs),
(236,439,o),
(213,434,o),
(180,434,cs),
(64,434,l),
(64,0,l)
);
},
{
closed = 1;
nodes = (
(356,672,l),
(356,583,l),
(250,583,l)
);
}
);
};
layerId = m01;
shapes = (
{
closed = 1;
nodes = (
(630,-1,l),
(630,434,l),
(523,434,ls),
(495,434,o),
(485,446,o),
(485,466,cs),
(485,500,l),
(604,500,l),
(604,564,l),
(484,564,l),
(484,716,l),
(221,716,l),
(37,564,l),
(37,500,l),
(250,500,l),
(250,466,ls),
(250,446,o),
(240,434,o),
(212,434,cs),
(30,434,l),
(30,-1,l)
);
},
{
closed = 1;
nodes = (
(151,564,l),
(250,648,l),
(250,564,l)
);
}
);
width = 677;
}
);
unicode = 52;
},
{
color = 4;
glyphname = five;
layers = (
{
background = {
shapes = (
{
closed = 1;
nodes = (
(465,-1,l),
(564,-1,o),
(621,56,o),
(621,155,cs),
(621,419,ls),
(621,511,o),
(558,576,o),
(465,576,cs),
(287,576,l),
(287,647,l),
(447,647,ls),
(483,647,o),
(493,636,o),
(493,600,c),
(592,600,l),
(592,716,l),
(32,716,l),
(32,516,l),
(374,516,ls),
(408,516,o),
(428,501,o),
(428,469,cs),
(428,446,o),
(405,434,o),
(374,434,cs),
(235,434,ls),
(201,434,o),
(188,441,o),
(188,466,c),
(32,466,l),
(32,-1,l)
);
}
);
};
layerId = m01;
shapes = (
{
closed = 1;
nodes = (
(382,631,ls),
(403,631,o),
(413,625,o),
(413,603,cs),
(413,586,l),
(620,587,l),
(620,716,l),
(30,715,l),
(30,501,l),
(361,501,ls),
(398,501,o),
(412,491,o),
(412,467,cs),
(412,447,o),
(402,434,o),
(374,434,cs),
(275,434,ls),
(247,434,o),
(237,447,o),
(237,467,c),
(30,467,l),
(30,148,ls),
(30,66,o),
(82,-7,o),
(170,-7,cs),
(454,-7,ls),
(564,-7,o),
(630,11,o),
(630,116,cs),
(630,472,ls),
(630,545,o),
(583,564,o),
(529,564,cs),
(237,564,l),
(237,631,l)
);
}
);
width = 660;
}
);
unicode = 53;
},
{
color = 4;
glyphname = six;
layers = (
{
background = {
shapes = (
{
closed = 1;
nodes = (
(451,0,ls),
(549,0,o),
(586,36,o),
(586,131,cs),
(586,435,ls),
(586,491,o),
(531,535,o),
(461,535,cs),
(286,535,l),
(286,573,ls),
(286,611,o),
(315,636,o),
(357,636,cs),
(392,636,o),
(416,608,o),
(416,568,c),
(565,568,l),
(565,716,l),
(186,716,ls),
(99,716,o),
(33,645,o),
(33,551,cs),
(32,131,ls),
(32,50,o),
(84,0,o),
(168,0,cs)
);
},
{
closed = 1;
nodes = (
(286,495,l),
(416,495,ls),
(445,495,o),
(465,482,o),
(465,464,cs),
(465,445,o),
(447,434,o),
(417,434,cs),
(286,434,l)
);
}
);
};
layerId = m01;
shapes = (
{
closed = 1;
nodes = (
(630,472,ls),
(630,545,o),
(583,564,o),
(529,564,cs),
(237,564,l),
(237,598,ls),
(237,613,o),
(237,631,o),
(271,631,cs),
(382,631,l),
(403,631,o),
(413,625,o),
(413,603,cs),
(413,586,l),
(620,587,l),
(620,616,ls),
(620,681,o),
(545,716,o),
(474,716,cs),
(150,715,ls),
(60,715,o),
(30,648,o),
(30,561,cs),
(30,148,ls),
(30,66,o),
(82,-7,o),
(170,-7,cs),
(454,-7,ls),
(564,-7,o),
(630,11,o),
(630,116,cs)
);
},
{
closed = 1;
nodes = (
(275,434,ls),
(247,434,o),
(237,447,o),
(237,467,cs),
(237,491,o),
(251,501,o),
(288,501,cs),
(361,501,ls),
(398,501,o),
(412,491,o),
(412,467,cs),
(412,447,o),
(402,434,o),
(374,434,cs)
);
}
);
width = 660;
}
);
unicode = 54;
},
{
color = 4;
glyphname = seven;
layers = (
{
background = {
shapes = (
{
closed = 1;
nodes = (
(364,631,l),
(250,440,l),
(130,440,l),
(130,0,l),
(558,0,l),
(558,440,l),
(438,440,l),
(502,560,l),
(533,622,o),
(560,637,o),
(593,637,c),
(595,716,l),
(104,716,l),
(104,564,l),
(244,564,l),
(244,575,ls),
(244,610,o),
(264,631,o),
(309,631,cs)
);
},
{
closed = 1;
nodes = (
(271,411,o),
(248,424,o),
(248,464,cs),
(248,589,ls),
(248,610,o),
(258,631,o),
(286,631,cs),
(379,631,ls),
(403,631,o),
(423,617,o),
(423,577,cs),
(423,450,ls),
(423,431,o),
(401,412,o),
(378,412,cs),
(299,411,ls)
);
}
);
};
layerId = m01;
shapes = (
{
closed = 1;
nodes = (
(355,630,l),
(263,478,ls),
(254,463,o),
(237,433,o),
(190,433,cs),
(30,434,l),
(30,-1,l),
(630,-1,l),
(630,434,l),
(479,433,ls),
(447,433,o),
(450,462,o),
(459,475,cs),
(514,559,ls),
(552,618,o),
(572,633,o),
(611,635,cs),
(630,636,l),
(630,716,l),
(30,716,l),
(30,564,l),
(249,564,l),
(249,575,ls),
(249,610,o),
(264,632,o),
(309,631,cs)
);
}
);
width = 660;
}
);
unicode = 55;
},
{
glyphname = eight;
layers = (
{
background = {
shapes = (
{
closed = 1;
nodes = (
(505,0,ls),
(580,0,o),
(667,47,o),
(667,182,cs),
(667,360,ls),
(667,484,o),
(574,490,o),
(552,501,c),
(574,507,o),
(656,516,o),
(656,602,cs),
(656,665,o),
(612,716,o),
(562,716,cs),
(136,716,ls),
(86,716,o),
(42,665,o),
(42,602,cs),
(42,516,o),
(124,507,o),
(146,501,c),
(124,490,o),
(31,484,o),
(31,360,cs),
(31,182,ls),
(31,47,o),
(118,0,o),
(193,0,cs)
);
},
{
closed = 1;
nodes = (
(252,412,o),
(234,424,o),
(234,448,cs),
(234,471,o),
(252,484,o),
(285,484,cs),
(413,484,ls),
(446,484,o),
(464,471,o),
(464,448,cs),
(464,424,o),
(446,412,o),
(413,412,cs),
(285,412,ls)
);
},
{
closed = 1;
nodes = (
(249,579,o),
(238,583,o),
(238,599,cs),
(238,608,o),
(246,619,o),
(274,619,cs),
(424,619,ls),
(452,619,o),
(460,608,o),
(460,599,cs),
(460,583,o),
(449,579,o),
(424,579,cs),
(274,579,ls)
);
}
);
};
layerId = m01;
shapes = (
{
closed = 1;
nodes = (
(374,631,ls),
(402,631,o),
(412,618,o),
(412,598,cs),
(412,574,o),
(398,564,o),
(361,564,cs),
(299,564,ls),
(262,564,o),
(248,574,o),
(248,598,cs),
(248,618,o),
(258,631,o),
(286,631,cs)
);
},
{
closed = 1;
nodes = (
(30,51,o),
(115,-7,o),
(186,-7,cs),
(474,-7,ls),
(545,-7,o),
(630,51,o),
(630,145,cs),
(630,405,ls),
(630,506,o),
(576,525,o),
(529,525,cs),
(583,525,o),
(620,543,o),
(620,592,cs),
(620,697,o),
(564,716,o),
(454,716,cs),
(206,716,ls),
(96,716,o),
(40,697,o),
(40,602,cs),
(40,544,o),
(77,526,o),
(131,526,cs),
(84,526,o),
(30,507,o),
(30,408,cs),
(30,338,o),
(30,212,o),
(30,162,cs)
);
},
{
closed = 1;
nodes = (
(248,488,o),
(258,501,o),
(286,501,cs),
(374,501,ls),
(402,501,o),
(412,488,o),
(412,468,cs),
(412,444,o),
(398,434,o),
(361,434,cs),
(299,434,ls),
(262,434,o),
(248,444,o),
(248,468,cs)
);
}
);
width = 660;
}
);
unicode = 56;
},
{
glyphname = nine;
layers = (
{
background = {
shapes = (
{
closed = 1;
nodes = (
(513,0,l),
(592,9,o),
(636,84,o),
(636,164,cs),
(636,597,ls),
(636,669,o),
(566,716,o),
(501,716,cs),
(124,716,ls),
(64,716,o),
(31,647,o),
(31,602,cs),
(31,593,ls),
(31,551,o),
(67,501,o),
(108,501,cs),
(459,501,l),
(459,475,ls),
(459,451,o),
(444,434,o),
(420,434,cs),
(203,434,ls),
(185,434,o),
(163,435,o),
(163,453,cs),
(163,477,l),
(40,477,l),
(40,140,ls),
(40,42,o),
(122,0,o),
(180,0,cs)
);
},
{
closed = 1;
nodes = (
(286,564,o),
(269,578,o),
(269,598,cs),
(269,619,o),
(286,631,o),
(315,631,cs),
(459,631,l),
(459,564,l),
(315,564,ls)
);
}
);
};
layerId = m01;
shapes = (
{
closed = 1;
nodes = (
(30,520,o),
(77,501,o),
(131,501,cs),
(423,501,l),
(423,484,ls),
(423,455,o),
(423,434,o),
(389,434,cs),
(278,434,l),
(257,434,o),
(247,440,o),
(247,462,cs),
(247,479,l),
(40,478,l),
(40,116,ls),
(40,51,o),
(115,-7,o),
(186,-7,cs),
(510,-6,ls),
(600,-6,o),
(630,61,o),
(630,148,cs),
(630,561,ls),
(630,643,o),
(578,716,o),
(490,716,cs),
(206,716,ls),
(96,716,o),
(30,698,o),
(30,593,cs)
);
},
{
closed = 1;
nodes = (
(385,631,ls),
(413,631,o),
(423,618,o),
(423,598,cs),
(423,574,o),
(409,564,o),
(372,564,cs),
(299,564,ls),
(262,564,o),
(248,574,o),
(248,598,cs),
(248,618,o),
(258,631,o),
(286,631,cs)
);
}
);
width = 660;
}
);
unicode = 57;
},
{
export = 0;
glyphname = zero.ss01;
lastChange = "2023-11-21 20:06:39 +0000";
layers = (
{
layerId = m01;
shapes = (
{
closed = 1;
nodes = (
(510,0,ls),
(600,0,o),
(621,67,o),
(622,154,cs),
(627,546,ls),
(628,630,o),
(578,716,o),
(490,716,cs),
(207,716,ls),
(98,716,o),
(32,670,o),
(32,559,cs),
(32,123,ls),
(30,58,o),
(107,0,o),
(178,0,cs)
);
},
{
closed = 1;
nodes = (
(272,432,o),
(249,445,o),
(251,485,cs),
(256,584,ls),
(257,605,o),
(259,626,o),
(287,626,cs),
(380,626,ls),
(404,626,o),
(417,612,o),
(419,572,cs),
(423,471,ls),
(424,452,o),
(402,433,o),
(379,433,cs),
(300,432,ls)
);
},
{
closed = 1;
nodes = (
(380,351,o),
(416,387,o),
(416,432,cs),
(416,477,o),
(380,513,o),
(336,513,cs),
(291,513,o),
(256,477,o),
(256,432,cs),
(256,387,o),
(291,351,o),
(336,351,cs)
);
}
);
width = 659;
}
);
},
{
export = 0;
glyphname = one.ss01;
lastChange = "2023-11-21 20:06:39 +0000";
layers = (
{
layerId = m01;
shapes = (
{
closed = 1;
nodes = (
(471,0,l),
(471,412,l),
(383,412,l),
(383,716,l),
(158,716,l),
(158,646,o),
(77,544,o),
(26,544,c),
(158,544,l),
(158,412,l),
(32,412,l),
(32,0,l)
);
}
);
width = 503;
}
);
},
{
export = 0;
glyphname = four.ss01;
lastChange = "2023-11-27 14:11:22 +0000";
layers = (
{
layerId = m01;
shapes = (
{
closed = 1;
nodes = (
(614,0,l),
(614,412,l),
(519,412,ls),
(474,412,o),
(472,429,o),
(472,447,cs),
(472,468,o),
(491,484,o),
(519,484,cs),
(667,484,l),
(667,593,l),
(523,593,l),
(523,716,l),
(198,716,l),
(198,593,o),
(149,593,o),
(34,593,c),
(32,484,l),
(254,484,ls),
(292,484,o),
(312,472,o),
(312,447,cs),
(312,428,o),
(282,412,o),
(254,412,cs),
(124,412,l),
(124,0,l)
);
},
{
closed = 1;
nodes = (
(370,652,l),
(370,593,l),
(307,593,l)
);
}
);
width = 699;
}
);
},
{
export = 0;
glyphname = four.ss02;
lastChange = "2023-11-21 20:06:39 +0000";
layers = (
{
background = {
shapes = (
{
closed = 1;
nodes = (
(574,0,l),
(574,217,l),
(533,217,ls),
(488,217,o),
(486,239,o),
(486,263,cs),
(486,291,o),
(505,313,o),
(533,313,cs),
(681,313,l),
(681,465,l),
(537,465,l),
(537,716,l),
(212,716,l),
(212,570,o),
(163,480,o),
(48,423,c),
(46,313,l),
(268,313,ls),
(306,313,o),
(326,297,o),
(326,263,cs),
(326,238,o),
(296,217,o),
(268,217,cs),
(217,217,l),
(217,0,l)
);
},
{
closed = 1;
nodes = (
(384,616,l),
(384,465,l),
(286,465,l)
);
}
);
};
layerId = m01;
shapes = (
{
closed = 1;
nodes = (
(581,0,l),
(581,440,l),
(529,440,ls),
(496,440,o),
(474,445,o),
(474,467,cs),
(474,490,o),
(491,495,o),
(529,495,cs),
(655,495,l),
(655,583,l),
(474,583,l),
(474,716,l),
(247,716,l),
(247,634,o),
(178,583,o),
(64,583,c),
(62,495,l),
(182,495,ls),
(219,495,o),
(236,490,o),
(236,467,cs),
(236,445,o),
(213,440,o),
(180,440,cs),
(128,440,l),
(128,0,l)
);
},
{
closed = 1;
nodes = (
(356,672,l),
(356,583,l),
(250,583,l)
);
}
);
width = 677;
}
);
},
{
color = 0;
glyphname = period;
lastChange = "2023-10-27 15:08:55 +0000";
layers = (
{
layerId = m01;
shapes = (
{
closed = 1;
nodes = (
(155,0,o),
(212,31,o),
(212,89,cs),
(212,134,o),
(172,177,o),
(125,177,cs),
(75,177,o),
(35,137,o),
(35,89,cs),
(35,40,o),
(68,0,o),
(124,0,c)
);
}
);
width = 247;
}
);
unicode = 46;
},
{
color = 0;
glyphname = comma;
lastChange = "2023-11-21 20:06:25 +0000";
layers = (
{
layerId = m01;
shapes = (
{
closed = 1;
nodes = (
(35,0,l),
(120,0,ls),
(151,0,o),
(159,-41,o),
(134,-66,cs),
(24,-176,l),
(175,-105,ls),
(249,-70,o),
(292,-13,o),
(292,64,cs),
(292,127,o),
(234,172,o),
(167,171,cs),
(37,169,l)
);
}
);
width = 304;
}
);
unicode = 44;
},
{
color = 0;
glyphname = exclam;
lastChange = "2023-11-21 20:06:48 +0000";
layers = (
{
layerId = m01;
shapes = (
{
ref = period;
},
{
closed = 1;
nodes = (
(67,732,l),
(173,722,l),
(143,257,l),
(99,255,l)
);
}
);
width = 247;
}
);
unicode = 33;
},
{
color = 0;
glyphname = question;
lastChange = "2023-11-21 20:06:25 +0000";
layers = (
{
layerId = m01;
shapes = (
{
closed = 1;
nodes = (
(112,538,l),
(113,590,l),
(113,605,o),
(133,624,o),
(150,624,c),
(175,624,o),
(192,605,o),
(192,575,c),
(193,505,l),
(193,479,o),
(180,470,o),
(143,444,cs),
(106,418,o),
(95,395,o),
(95,358,c),
(91,260,l),
(135,262,l),
(133,321,l),
(133,349,o),
(145,361,o),
(191,379,cs),
(258,404,o),
(298,464,o),
(298,539,cs),
(298,660,o),
(249,720,o),
(149,720,c),
(77,720,o),
(24,675,o),
(24,614,c),
(24,531,l)
);
},
{
closed = 1;
nodes = (
(75,214,o),
(182,214,o),
(131,214,cs)
);
},
{
pos = (6,0);
ref = period;
}
);
width = 322;
}
);
unicode = 63;
},
{
color = 0;
glyphname = bullet;
lastChange = "2023-11-21 20:06:25 +0000";
layers = (
{
layerId = m01;
shapes = (
{
closed = 1;
nodes = (
(229,361,o),
(322,412,o),
(322,506,cs),
(322,579,o),
(256,649,o),
(180,649,cs),
(101,649,o),
(35,583,o),
(35,506,cs),
(35,427,o),
(89,361,o),
(179,361,c)
);
}
);
width = 357;
}
);
metricLeft = period;
metricRight = period;
unicode = 8226;
},
{
color = 0;
glyphname = asterisk;
lastChange = "2023-11-21 20:06:25 +0000";
layers = (
{
background = {
shapes = (
{
closed = 1;
nodes = (
(162,868,l),
(216,868,l),
(216,552,l),
(162,550,l)
);
},
{
closed = 1;
nodes = (
(281,851,l),
(337,829,l),
(71,563,l),
(24,592,l)
);
},
{
closed = 1;
nodes = (
(285,565,l),
(30,820,l),
(92,851,l),
(342,586,l)
);
},
{
closed = 1;
nodes = (
(348,733,l),
(348,682,l),
(32,682,l),
(40,736,l)
);
}
);
};
layerId = m01;
shapes = (
{
closed = 1;
nodes = (
(219,565,l),
(219,641,l),
(276,578,l),
(333,595,l),
(242,683,l),
(342,685,l),
(342,732,l),
(248,732,l),
(337,819,l),
(280,844,l),
(219,779,l),
(219,868,l),
(159,867,l),
(159,763,l),
(92,840,l),
(30,810,l),
(115,733,l),
(30,734,l),
(23,680,l),
(108,680,l),
(24,602,l),
(71,576,l),
(159,659,l),
(159,563,l)
);
}
);
width = 372;
}
);
unicode = 42;
},
{
color = 0;
glyphname = numbersign;
lastChange = "2023-11-21 20:06:25 +0000";
layers = (
{
layerId = m01;
shapes = (
{
closed = 1;
nodes = (
(431,-32,l),
(671,762,l),
(548,762,l),
(321,-32,l)
);
},
{
closed = 1;
nodes = (
(159,-32,l),
(399,762,l),
(286,762,l),
(59,-32,l)
);
},
{
closed = 1;
nodes = (
(674,457,l),
(709,561,l),
(115,561,l),
(80,457,l)
);
},
{
closed = 1;
nodes = (
(607,209,l),
(641,313,l),
(44,313,l),
(10,209,l)
);
}
);
width = 700;
}
);
unicode = 35;
},
{
color = 0;
glyphname = slash;
lastChange = "2023-11-21 20:06:25 +0000";
layers = (
{
layerId = m01;
shapes = (
{
closed = 1;
nodes = (
(379,762,l),
(512,762,l),
(202,-32,l),
(82,-32,l)
);
}
);
width = 522;
}
);
unicode = 47;
},
{
color = 0;
glyphname = comma.ss01;
lastChange = "2023-11-28 12:47:18 +0000";
layers = (
{
layerId = m01;
shapes = (
{
closed = 1;
nodes = (
(95,-6,l),
(116,26,o),
(115,47,o),
(90,71,cs),
(66,95,o),
(59,125,o),
(70,156,cs),
(86,199,o),
(119,215,o),
(192,215,cs),
(230,215,o),
(260,172,o),
(260,119,cs),
(260,72,o),
(224,17,o),
(170,-22,cs),
(134,-48,o),
(71,-81,o),
(24,-99,c)
);
}
);
width = 284;
}
);
},
{
color = 0;
glyphname = hyphen;
lastChange = "2023-11-21 20:06:25 +0000";
layers = (
{
layerId = m01;
shapes = (
{
closed = 1;
nodes = (
(24,489,l),
(245,489,l),
(245,573,l),
(24,573,l)
);
}
);
width = 269;
}
);
unicode = 45;
},
{
color = 0;
glyphname = endash;
lastChange = "2023-11-21 20:06:25 +0000";
layers = (
{
layerId = m01;
shapes = (
{
closed = 1;
nodes = (
(24,489,l),
(342,489,l),
(342,573,l),
(24,573,l)
);
}
);
width = 366;
}
);
metricLeft = hyphen;
metricRight = hyphen;
unicode = 8211;
},
{
color = 0;
glyphname = emdash;
lastChange = "2023-11-21 20:06:25 +0000";
layers = (
{
layerId = m01;
shapes = (
{
closed = 1;
nodes = (
(24,489,l),
(694,489,l),
(694,573,l),
(24,573,l)
);
}
);
width = 718;
}
);
metricLeft = hyphen;
metricRight = hyphen;
unicode = 8212;
},
{
color = 0;
glyphname = underscore;
lastChange = "2023-11-21 20:06:25 +0000";
layers = (
{
layerId = m01;
shapes = (
{
closed = 1;
nodes = (
(24,-40,l),
(534,-40,l),
(534,14,l),
(24,14,l)
);
}
);
width = 558;
}
);
metricLeft = hyphen;
metricRight = hyphen;
unicode = 95;
},
{
color = 0;
glyphname = parenleft;
lastChange = "2023-11-21 20:06:25 +0000";
layers = (
{
layerId = m01;
shapes = (
{
closed = 1;
nodes = (
(415,-12,l),
(301,-12,o),
(184,196,o),
(184,398,cs),
(184,545,o),
(275,731,o),
(364,766,c),
(356,832,l),
(197,832,o),
(24,606,o),
(24,398,cs),
(24,101,o),
(182,-100,o),
(415,-100,c)
);
}
);
width = 439;
}
);
unicode = 40;
},
{
color = 0;
glyphname = braceright;
lastChange = "2023-11-21 20:06:25 +0000";
layers = (
{
layerId = m01;
shapes = (
{
closed = 1;
nodes = (
(359,-70,o),
(462,37,o),
(492,185,cs),
(505,249,o),
(527,334,o),
(591,391,c),
(542,423,o),
(476,518,o),
(468,613,cs),
(459,716,o),
(333,806,o),
(241,806,cs),
(115,806,o),
(24,740,o),
(24,606,c),
(115,609,l),
(115,666,o),
(174,710,o),
(245,710,cs),
(300,710,o),
(364,627,o),
(364,537,cs),
(364,483,o),
(414,430,o),
(466,394,c),
(402,334,o),
(369,249,o),
(363,165,cs),
(360,126,o),
(300,21,o),
(243,21,cs),
(174,21,o),
(130,57,o),
(130,114,c),
(32,114,l),
(32,-3,o),
(92,-70,o),
(247,-70,cs)
);
}
);
width = 601;
}
);
unicode = 125;
},
{
color = 0;
glyphname = bracketleft;
lastChange = "2023-11-21 20:06:25 +0000";
layers = (
{
layerId = m01;
shapes = (
{
closed = 1;
nodes = (
(381,68,l),
(263,71,l),
(263,41,o),
(255,14,o),
(234,15,cs),
(150,20,l),
(152,735,l),
(227,730,ls),
(249,729,o),
(265,710,o),
(265,677,c),
(380,675,l),
(376,820,l),
(27,816,l),
(24,-76,l),
(384,-77,l)
);
}
);
width = 408;
}
);
unicode = 91;
},
{
color = 0;
glyphname = quoteright;
lastChange = "2023-11-21 20:06:25 +0000";
layers = (
{
background = {
shapes = (
{
closed = 1;
nodes = (
(79,591,l),
(94,626,o),
(89,647,o),
(61,666,cs),
(33,686,o),
(21,714,o),
(27,746,cs),
(36,792,o),
(65,813,o),
(137,825,cs),
(175,831,o),
(212,794,o),
(220,742,cs),
(228,696,o),
(202,635,o),
(155,588,cs),
(124,556,o),
(68,514,o),
(24,487,c)
);
}
);
};
layerId = m01;
shapes = (
{
closed = 1;
nodes = (
(79,591,l),
(84,605,o),
(87,616,o),
(87,624,cs),
(87,641,o),
(79,654,o),
(61,666,cs),
(37,683,o),
(25,706,o),
(25,730,cs),
(25,800,o),
(85,825,o),
(137,825,cs),
(184,825,o),
(221,796,o),
(221,725,cs),
(221,681,o),
(195,628,o),
(155,588,cs),
(126,558,o),
(72,516,o),
(24,487,c)
);
}
);
width = 245;
}
);
unicode = 8217;
},
{
color = 0;
glyphname = guilsinglleft;
lastChange = "2023-11-21 20:06:25 +0000";
layers = (
{
layerId = m01;
shapes = (
{
closed = 1;
nodes = (
(326,233,l),
(156,424,l),
(326,615,l),
(214,615,l),
(24,424,l),
(214,233,l)
);
}
);
width = 350;
}
);
unicode = 8249;
},
{
color = 0;
glyphname = quotedbl;
lastChange = "2023-11-21 20:06:25 +0000";
layers = (
{
layerId = m01;
shapes = (
{
closed = 1;
nodes = (
(24,827,l),
(148,827,l),
(116,541,l),
(40,541,l)
);
},
{
closed = 1;
nodes = (
(196,827,l),
(320,827,l),
(282,544,l),
(212,541,l)
);
}
);
width = 344;
}
);
unicode = 34;
},
{
color = 0;
glyphname = dieresiscomb;
lastChange = "2023-11-21 20:04:44 +0000";
layers = (
{
anchors = (
{
name = _top;
pos = (122,716);
},
{
name = top;
pos = (125,863);
}
);
layerId = m01;
shapes = (
{
closed = 1;
nodes = (
(228,758,o),
(251,782,o),
(251,810,cs),
(251,839,o),
(232,863,o),
(199,863,cs),
(180,863,o),
(146,845,o),
(146,810,cs),
(146,784,o),
(170,758,o),
(198,758,cs)
);
},
{
closed = 1;
nodes = (
(74,758,o),
(108,776,o),
(108,811,cs),
(108,837,o),
(84,863,o),
(56,863,cs),
(26,863,o),
(3,839,o),
(3,811,cs),
(3,782,o),
(22,758,o),
(55,758,cs)
);
}
);
width = 247;
}
);
unicode = 776;
},
{
color = 0;
glyphname = dotaccentcomb;
lastChange = "2023-11-21 20:04:44 +0000";
layers = (
{
anchors = (
{
name = _top;
pos = (126,716);
},
{
name = top;
pos = (127,858);
}
);
layerId = m01;
shapes = (
{
closed = 1;
nodes = (
(145,753,o),
(178,771,o),
(178,806,cs),
(178,832,o),
(155,858,o),
(127,858,cs),
(97,858,o),
(74,834,o),
(74,806,cs),
(74,777,o),
(93,753,o),
(126,753,cs)
);
}
);
width = 247;
}
);
unicode = 775;
},
{
color = 0;
glyphname = gravecomb;
lastChange = "2023-11-21 20:04:55 +0000";
layers = (
{
anchors = (
{
name = _top;
pos = (150,716);
},
{
name = top;
}
);
backgroundImage = {
imagePath = "../NSIRD_screencaptureui_adPfVq/Screenshot 2023-11-02 at 2.13.40 PM.png";
pos = (43,727);
scale = (0.822,0.822);
};
layerId = m01;
shapes = (
{
closed = 1;
nodes = (
(193,757,l),
(154,871,l),
(71,873,l),
(145,754,l)
);
}
);
width = 300;
}
);
unicode = 768;
},
{
color = 0;
glyphname = acutecomb;
lastChange = "2023-11-21 20:04:44 +0000";
layers = (
{
anchors = (
{
name = _top;
pos = (150,716);
},
{
name = top;
}
);
backgroundImage = {
imagePath = "../NSIRD_screencaptureui_tkx6UC/Screenshot 2023-11-02 at 2.27.56 PM.png";
pos = (92,736);
scale = (0.9242,0.9242);
};
layerId = m01;
shapes = (
{
closed = 1;
nodes = (
(253,868,l),
(167,870,l),
(118,759,l),
(172,757,l)
);
}
);
width = 300;
}
);
unicode = 769;
},
{
color = 0;
glyphname = hungarumlautcomb;
lastChange = "2023-11-21 20:04:44 +0000";
layers = (
{
anchors = (
{
name = _top;
pos = (150,716);
},
{
name = top;
}
);
layerId = m01;
shapes = (
{
closed = 1;
nodes = (
(174,868,l),
(97,870,l),
(48,759,l),
(102,757,l)
);
},
{
closed = 1;
nodes = (
(271,873,l),
(188,871,l),
(149,757,l),
(197,754,l)
);
}
);
width = 300;
}
);
unicode = 779;
},
{
color = 0;
glyphname = caroncomb.alt;
lastChange = "2023-11-21 20:04:44 +0000";
layers = (
{
anchors = (
{
name = _topright;
pos = (150,716);
}
);
backgroundImage = {
imagePath = "../NSIRD_screencaptureui_E9c3Kf/Screenshot 2023-11-02 at 2.33.01 PM.png";
pos = (115,715);
};
layerId = m01;
shapes = (
{
closed = 1;
nodes = (
(196,760,l),
(229,870,l),
(155,867,l),
(132,760,l)
);
}
);
width = 300;
}
);
},
{
color = 0;
glyphname = circumflexcomb;
lastChange = "2023-11-21 20:04:44 +0000";
layers = (
{
anchors = (
{
name = _top;
pos = (150,716);
},
{
name = top;
}
);
backgroundImage = {
imagePath = "../NSIRD_screencaptureui_jQ2F03/Screenshot 2023-11-02 at 2.35.42 PM.png";
pos = (50,723);
scale = (0.7348,0.7348);
};
layerId = m01;
shapes = (
{
closed = 1;
nodes = (
(252,760,l),
(192,868,l),
(119,868,l),
(56,762,l),
(104,761,l),
(152,824,l),
(209,759,l)
);
}
);
width = 300;
}
);
unicode = 770;
},
{
color = 0;
glyphname = caroncomb;
lastChange = "2023-11-21 20:04:44 +0000";
layers = (
{
anchors = (
{
name = _top;
pos = (150,716);
},
{
name = top;
}
);
backgroundImage = {
imagePath = "../NSIRD_screencaptureui_DWUA9X/Screenshot 2023-11-02 at 2.37.30 PM.png";
pos = (28,731);
scale = (0.7981,0.7981);
};
layerId = m01;
shapes = (
{
closed = 1;
nodes = (
(195,759,l),
(249,872,l),
(205,870,l),
(153,804,l),
(107,868,l),
(57,864,l),
(111,759,l)
);
}
);
width = 300;
}
);
unicode = 780;
},
{
color = 0;
glyphname = brevecomb;
lastChange = "2023-11-21 20:04:44 +0000";
layers = (
{
anchors = (
{
name = _top;
pos = (150,716);
},
{
name = top;
pos = (152,714);
}
);
backgroundImage = {
imagePath = "../NSIRD_screencaptureui_PtlrnR/Screenshot 2023-11-02 at 2.39.13 PM.png";
pos = (19,744);
scale = (0.7835,0.7835);
};
layerId = m01;
shapes = (
{
closed = 1;
nodes = (
(56,843,l),
(58,819,o),
(64,799,o),
(80,775,cs),
(93,756,o),
(104,747,o),
(121,740,cs),
(135,734,o),
(145,734,o),
(157,734,cs),
(173,734,o),
(189,741,o),
(203,749,cs),
(213,754,o),
(227,769,o),
(232,779,cs),
(239,793,o),
(244,825,o),
(244,840,c),
(200,842,l),
(197,828,o),
(198,813,o),
(191,800,cs),
(180,781,o),
(173,782,o),
(153,782,cs),
(137,782,o),
(128,789,o),
(124,792,cs),
(116,798,o),
(111,811,o),
(110,815,cs),
(105,832,o),
(104,836,o),
(104,844,c)
);
}
);
width = 300;
}
);
unicode = 774;
},
{
color = 0;
glyphname = ringcomb;
lastChange = "2023-11-21 20:04:44 +0000";
layers = (
{
anchors = (
{
name = _top;
pos = (154,716);
},
{
name = top;
pos = (154,880);
}
);
layerId = m01;
shapes = (
{
closed = 1;
nodes = (
(230,759,ls),
(248,759,o),
(264,779,o),
(264,798,cs),
(264,829,ls),
(264,852,o),
(246,871,o),
(230,871,cs),
(78,871,ls),
(62,871,o),
(46,856,o),
(46,839,cs),
(46,792,ls),
(46,777,o),
(62,759,o),
(77,759,cs)
);
},
{
closed = 1;
nodes = (
(217,832,o),
(225,827,o),
(225,818,cs),
(225,809,ls),
(225,800,o),
(217,798,o),
(209,798,cs),
(102,798,ls),
(94,798,o),
(85,800,o),
(85,809,cs),
(85,818,ls),
(85,828,o),
(93,832,o),
(102,832,cs),
(210,832,ls)
);
}
);
width = 300;
}
);
unicode = 778;
},
{
color = 0;
glyphname = tildecomb;
lastChange = "2023-11-21 20:04:44 +0000";
layers = (
{
anchors = (
{
name = _top;
pos = (150,716);
},
{
name = top;
pos = (153,858);
}
);
backgroundImage = {
imagePath = "/Desktop/Screenshot 2023-11-02 at 2.43.12 PM.png";
locked = 1;
pos = (35,741);
scale = (0.7473,0.7473);
};
layerId = m01;
shapes = (
{
closed = 1;
nodes = (
(159,764,o),
(175,800,o),
(196,800,cs),
(210,800,o),
(221,785,o),
(235,767,c),
(259,767,l),
(259,785,o),
(254,808,o),
(244,823,cs),
(233,840,o),
(216,856,o),
(196,856,cs),
(172,856,o),
(161,823,o),
(137,814,cs),
(123,809,o),
(106,818,o),
(97,829,cs),
(88,840,o),
(87,848,o),
(82,858,c),
(46,858,l),
(48,835,o),
(52,808,o),
(68,790,cs),
(83,773,o),
(108,764,o),
(124,764,cs)
);
}
);
width = 300;
}
);
unicode = 771;
},
{
color = 0;
glyphname = macroncomb;
lastChange = "2023-11-21 20:04:44 +0000";
layers = (
{
anchors = (
{
name = _top;
pos = (174,601);
},
{
name = top;
pos = (165,676);
}
);
layerId = m01;
shapes = (
{
closed = 1;
nodes = (
(324,624,l),
(325,679,l),
(25,678,l),
(25,621,l)
);
}
);
width = 350;
}
);
unicode = 772;
},
{
color = 2;
glyphname = dblgravecomb;
lastChange = "2023-11-21 20:01:09 +0000";
layers = (
{
anchors = (
{
name = _top;
pos = (165,716);
},
{
name = top;
pos = (165,861);
}
);
layerId = m01;
shapes = (
{
closed = 1;
nodes = (
(137,756,l),
(111,859,l),
(28,861,l),
(89,753,l)
);
},
{
closed = 1;
nodes = (
(245,753,l),
(219,856,l),
(136,858,l),
(197,750,l)
);
}
);
width = 300;
}
);
unicode = 783;
},
{
color = 2;
glyphname = candraBinducomb;
lastChange = "2023-11-21 20:01:09 +0000";
layers = (
{
anchors = (
{
name = _top;
pos = (293,636);
},
{
name = top;
}
);
layerId = m01;
shapes = (
{
closed = 1;
nodes = (
(136,833,o),
(157,718,o),
(295,717,cs),
(425,716,o),
(448,826,o),
(450,853,c),
(400,853,l),
(400,826,o),
(371,767,o),
(295,767,cs),
(228,767,o),
(186,833,o),
(186,853,c),
(136,853,l)
);
},
{
closed = 1;
nodes = (
(258,873,o),
(272,893,o),
(298,893,cs),
(321,893,o),
(338,876,o),
(338,853,cs),
(338,833,o),
(318,814,o),
(298,814,cs),
(280,814,o),
(258,832,o),
(258,853,cs)
);
},
{
closed = 0;
nodes = (
(4478,2040,l)
);
}
);
width = 600;
}
);
unicode = 784;
},
{
color = 2;
glyphname = commaabovecomb;
lastChange = "2023-11-21 20:01:09 +0000";
layers = (
{
anchors = (
{
name = _top;
pos = (280,716);
},
{
name = top;
}
);
layerId = m01;
shapes = (
{
closed = 1;
nodes = (
(402,885,l),
(316,887,l),
(267,776,l),
(321,774,l)
);
}
);
width = 600;
}
);
unicode = 787;
},
{
color = 0;
glyphname = commaaccentcomb;
lastChange = "2023-11-21 20:04:44 +0000";
layers = (
{
anchors = (
{
name = _bottom;
pos = (151,0);
},
{
name = bottom;
pos = (142,-180);
}
);
layerId = m01;
shapes = (
{
closed = 1;
nodes = (
(77,-180,l),
(160,-180,l),
(199,-64,l),
(151,-61,l)
);
}
);
width = 300;
}
);
unicode = 806;
},
{
color = 0;
glyphname = cedillacomb;
lastChange = "2023-11-21 20:04:44 +0000";
layers = (
{
anchors = (
{
name = _bottom;
},
{
name = bottom;
}
);
layerId = m01;
shapes = (
{
closed = 1;
nodes = (
(116,-187,o),
(135,-194,o),
(155,-194,cs),
(199,-194,o),
(245,-166,o),
(245,-110,cs),
(245,-47,o),
(182,-36,o),
(172,-33,c),
(163,0,l),
(123,0,l),
(134,-57,l),
(143,-59,o),
(201,-67,o),
(201,-103,cs),
(201,-126,o),
(188,-148,o),
(160,-148,cs),
(129,-148,o),
(116,-133,o),
(97,-111,c),
(97,-168,l)
);
}
);
width = 300;
}
);
unicode = 807;
},
{
color = 0;
glyphname = ogonekcomb;
lastChange = "2023-11-21 20:04:44 +0000";
layers = (
{
anchors = (
{
name = _ogonek;
pos = (211,0);
}
);
layerId = m01;
shapes = (
{
closed = 1;
nodes = (
(211,-94,l),
(192,-116,o),
(179,-131,o),
(148,-131,cs),
(120,-131,o),
(107,-113,o),
(107,-83,cs),
(107,-36,o),
(166,-17,o),
(211,0,c),
(134,0,l),
(97,-11,o),
(63,-43,o),
(63,-90,cs),
(63,-146,o),
(109,-177,o),
(153,-177,cs),
(173,-177,o),
(192,-170,o),
(211,-151,c)
);
}
);
width = 300;
}
);
unicode = 808;
},
{
color = 2;
glyphname = verticallinebelowcomb;
lastChange = "2023-11-21 20:01:09 +0000";
layers = (
{
anchors = (
{
name = _bottom;
},
{
name = bottom;
}
);
layerId = m01;
shapes = (
{
closed = 1;
nodes = (
(325,-69,l),
(342,-212,l),
(259,-210,l),
(277,-69,l)
);
}
);
width = 600;
}
);
unicode = 809;
},
{
color = 2;
glyphname = circumflexbelowcomb;
lastChange = "2023-11-21 20:01:09 +0000";
layers = (
{
anchors = (
{
name = _bottom;
pos = (280,0);
},
{
name = bottom;
pos = (281,0);
}
);
layerId = m01;
shapes = (
{
closed = 1;
nodes = (
(373,-191,l),
(313,-83,l),
(240,-83,l),
(177,-189,l),
(225,-190,l),
(273,-127,l),
(330,-192,l)
);
}
);
width = 600;
}
);
unicode = 813;
},
{
color = 2;
glyphname = breveinvertedbelowcomb;
lastChange = "2023-11-21 20:01:09 +0000";
layers = (
{
anchors = (
{
name = _bottom;
pos = (126,0);
},
{
name = bottom;
pos = (126,-156);
}
);
layerId = m01;
shapes = (
{
closed = 1;
nodes = (
(80,-148,o),
(81,-144,o),
(86,-127,cs),
(87,-123,o),
(92,-110,o),
(100,-104,cs),
(104,-101,o),
(113,-94,o),
(129,-94,cs),
(149,-94,o),
(156,-93,o),
(167,-112,cs),
(174,-125,o),
(173,-140,o),
(176,-154,c),
(220,-152,l),
(220,-137,o),
(215,-105,o),
(208,-91,cs),
(203,-81,o),
(189,-66,o),
(179,-61,cs),
(165,-53,o),
(149,-46,o),
(133,-46,cs),
(121,-46,o),
(111,-46,o),
(97,-52,cs),
(80,-59,o),
(69,-68,o),
(56,-87,cs),
(40,-111,o),
(34,-131,o),
(32,-155,c),
(80,-156,l)
);
}
);
width = 252;
}
);
unicode = 815;
},
{
color = 2;
glyphname = tildebelowcomb;
lastChange = "2023-11-21 20:01:09 +0000";
layers = (
{
anchors = (
{
name = _bottom;
pos = (172,0);
},
{
name = bottom;
pos = (172,-168);
}
);
layerId = m01;
shapes = (
{
closed = 1;
nodes = (
(114,-44,o),
(81,-56,o),
(61,-79,cs),
(40,-102,o),
(35,-138,o),
(32,-168,c),
(79,-168,l),
(86,-155,o),
(87,-144,o),
(99,-130,cs),
(111,-115,o),
(133,-104,o),
(152,-110,cs),
(183,-122,o),
(198,-165,o),
(229,-165,cs),
(256,-165,o),
(278,-144,o),
(292,-122,cs),
(306,-102,o),
(312,-72,o),
(312,-48,c),
(281,-48,l),
(262,-72,o),
(248,-92,o),
(229,-92,cs),
(202,-92,o),
(181,-44,o),
(135,-44,cs)
);
}
);
width = 344;
}
);
unicode = 816;
},
{
color = 2;
glyphname = macronbelowcomb;
lastChange = "2023-11-21 20:01:09 +0000";
layers = (
{
anchors = (
{
name = _bottom;
pos = (200,0);
},
{
name = bottom;
pos = (200,-154);
}
);
layerId = m01;
shapes = (
{
closed = 1;
nodes = (
(32,-154,l),
(367,-154,l),
(367,-100,l),
(32,-100,l)
);
}
);
width = 399;
}
);
unicode = 817;
},
{
color = 2;
glyphname = lowlinecomb;
lastChange = "2023-11-26 17:00:11 +0000";
layers = (
{
anchors = (
{
name = _bottom;
pos = (185,0);
},
{
name = bottom;
pos = (185,-154);
}
);
layerId = m01;
shapes = (
{
closed = 1;
nodes = (
(32,-154,l),
(338,-154,l),
(338,-100,l),
(32,-100,l)
);
}
);
width = 370;
}
);
unicode = 818;
},
{
color = 2;
glyphname = tildeoverlaycomb;
lastChange = "2023-11-21 20:01:09 +0000";
layers = (
{
anchors = (
{
name = _center;
pos = (172,355);
}
);
layerId = m01;
shapes = (
{
closed = 1;
nodes = (
(114,417,o),
(81,405,o),
(61,382,cs),
(40,359,o),
(35,323,o),
(32,293,c),
(79,293,l),
(86,306,o),
(87,317,o),
(99,331,cs),
(111,346,o),
(133,357,o),
(152,351,cs),
(183,339,o),
(198,296,o),
(229,296,cs),
(256,296,o),
(278,317,o),
(292,339,cs),
(306,359,o),
(312,389,o),
(312,413,c),
(281,413,l),
(262,389,o),
(248,369,o),
(229,369,cs),
(202,369,o),
(181,417,o),
(135,417,cs)
);
}
);
width = 344;
}
);
unicode = 820;
},
{
color = 2;
glyphname = dotaboverightcomb;
lastChange = "2023-11-21 20:01:09 +0000";
layers = (
{
layerId = m01;
shapes = (
{
closed = 1;
nodes = (
(32,607,l),
(128,607,l),
(128,716,l),
(32,716,l)
);
}
);
width = 160;
}
);
unicode = 856;
},
{
color = 2;
glyphname = acutemacroncomb;
lastChange = "2023-11-21 20:01:09 +0000";
layers = (
{
anchors = (
{
name = _top;
pos = (208,900);
},
{
name = top;
pos = (208,716);
}
);
layerId = m01;
shapes = (
{
closed = 1;
nodes = (
(170,716,l),
(232,716,l),
(383,716,l),
(383,664,l),
(200,664,l),
(71,547,l),
(32,576,l)
);
}
);
width = 415;
}
);
unicode = 7623;
},
{
color = 2;
glyphname = gravemacroncomb;
lastChange = "2023-11-21 20:01:09 +0000";
layers = (
{
anchors = (
{
name = _top;
pos = (213,900);
},
{
name = top;
pos = (213,716);
}
);
layerId = m01;
shapes = (
{
closed = 1;
nodes = (
(71,716,l),
(200,599,l),
(393,599,l),
(393,547,l),
(242,547,l),
(170,547,l),
(32,687,l)
);
}
);
width = 425;
}
);
unicode = 7621;
},
{
color = 2;
glyphname = macronacutecomb;
lastChange = "2023-11-21 20:01:09 +0000";
layers = (
{
anchors = (
{
name = _top;
pos = (213,900);
},
{
name = top;
pos = (213,716);
}
);
layerId = m01;
shapes = (
{
closed = 1;
nodes = (
(255,547,l),
(183,547,l),
(32,547,l),
(32,599,l),
(225,599,l),
(354,716,l),
(393,687,l)
);
}
);
width = 425;
}
);
unicode = 7620;
},
{
color = 2;
glyphname = macrongravecomb;
lastChange = "2023-11-21 20:01:09 +0000";
layers = (
{
anchors = (
{
name = _top;
pos = (208,900);
},
{
name = top;
pos = (208,716);
}
);
layerId = m01;
shapes = (
{
closed = 1;
nodes = (
(344,547,l),
(215,664,l),
(32,664,l),
(32,716,l),
(183,716,l),
(245,716,l),
(383,576,l)
);
}
);
width = 415;
}
);
unicode = 7622;
},
{
color = 0;
glyphname = _part.cut;
lastChange = "2023-11-21 20:01:09 +0000";
layers = (
{
layerId = m01;
shapes = (
{
closed = 1;
nodes = (
(0,159,l),
(42,159,o),
(66,131,o),
(66,80,c),
(44,80,o),
(22,80,o),
(0,80,c)
);
},
{
closed = 1;
nodes = (
(0,80,l),
(22,80,o),
(44,80,o),
(66,80,c),
(66,29,o),
(42,0,o),
(0,0,c)
);
}
);
width = 600;
},
{
associatedMasterId = m01;
attr = {
coordinates = (
1
);
};
layerId = "10F08360-6109-434E-9082-BEA660E032D2";
name = "{700, 1} Nov 20, 23 at 14:27";
shapes = (
{
closed = 1;
nodes = (
(0,159,l),
(29,159,o),
(45,131,o),
(66,80,c),
(30,80,o),
(15,80,o),
(0,80,c)
);
},
{
closed = 1;
nodes = (
(0,80,l),
(15,80,o),
(30,80,o),
(66,80,c),
(45,29,o),
(29,0,o),
(0,0,c)
);
}
);
width = 600;
},
{
associatedMasterId = m01;
attr = {
coordinates = (
2
);
};
layerId = "2AF8FCD9-7FCB-4A1D-97FB-39C62E7F585B";
name = "{700, 2} Nov 15, 23 at 14:40";
shapes = (
{
closed = 1;
nodes = (
(0,159,l),
(29,159,o),
(45,110,o),
(66,19,c),
(30,19,o),
(15,19,o),
(0,19,c)
);
},
{
closed = 1;
nodes = (
(0,19,l),
(15,19,o),
(30,19,o),
(66,19,c),
(45,7,o),
(29,0,o),
(0,0,c)
);
}
);
width = 600;
},
{
associatedMasterId = m01;
attr = {
coordinates = (
3
);
};
layerId = "3C929011-F920-4687-BEAE-2EAB2D2E6EC9";
name = "{700, 3} Nov 15, 23 at 14:41";
shapes = (
{
closed = 1;
nodes = (
(0,159,l),
(29,159,o),
(45,149,o),
(66,131,c),
(30,131,o),
(15,131,o),
(0,131,c)
);
},
{
closed = 1;
nodes = (
(0,131,l),
(15,131,o),
(30,131,o),
(66,131,c),
(45,47,o),
(29,0,o),
(0,0,c)
);
}
);
width = 600;
},
{
associatedMasterId = m01;
attr = {
coordinates = (
4
);
};
layerId = "2ECA3C3C-2AD1-4EF4-AD98-94FF36283BEE";
name = "{700, 4} Nov 16, 23 at 09:25";
shapes = (
{
closed = 1;
nodes = (
(0,230,l),
(66,230,o),
(136,221,o),
(137,131,c),
(82,131,o),
(35,131,o),
(0,131,c)
);
},
{
closed = 1;
nodes = (
(0,131,l),
(40,131,o),
(70,131,o),
(137,131,c),
(136,26,o),
(60,0,o),
(0,0,c)
);
}
);
width = 600;
},
{
associatedMasterId = m01;
attr = {
coordinates = (
5
);
};
layerId = "4EFDBC60-AA85-4368-B931-D9DEF48DE5F6";
name = "{700, 4} Nov 15, 23 at 14:52";
shapes = (
{
closed = 1;
nodes = (
(100,157,l),
(100,253,o),
(230,221,o),
(259,256,c),
(230,168,o),
(168,148,o),
(100,148,c)
);
},
{
closed = 1;
nodes = (
(0,0,l),
(-1,0,o),
(0,0,o),
(0,0,c),
(-1,0,o),
(-1,0,o),
(0,0,c)
);
}
);
width = 600;
},
{
associatedMasterId = m01;
attr = {
coordinates = (
6
);
};
layerId = "7DF25445-F050-44BE-BB93-8532EC44FC42";
name = "Nov 15, 23 at 14:23";
shapes = (
{
closed = 1;
nodes = (
(0,0,l),
(0,0,o),
(0,0,o),
(0,0,c),
(0,0,o),
(0,0,o),
(0,0,c)
);
},
{
closed = 1;
nodes = (
(0,0,l),
(0,0,o),
(0,0,o),
(0,0,c),
(0,0,o),
(0,0,o),
(0,0,c)
);
}
);
width = 600;
}
);
},
{
export = 0;
glyphname = _danfoCut.part;
lastChange = "2023-11-16 14:59:01 +0000";
layers = (
{
layerId = m01;
shapes = (
{
closed = 1;
nodes = (
(39,95,l),
(48,47,l),
(97,47,l),
(57,30,l),
(85,1,l),
(39,15,l),
(10,-4,l),
(22,22,l),
(-6,37,l),
(29,42,l)
);
}
);
width = 600;
},
{
associatedMasterId = m01;
attr = {
axisRules = (
{
max = 6;
min = 5;
}
);
coordinates = (
6
);
};
layerId = "9AC5F449-4DAB-42CC-9AFC-EE0896EC5EC5";
name = "Nov 16, 23 at 09:40";
shapes = (
{
closed = 1;
nodes = (
(24,-4,o),
(2,18,o),
(2,45,cs),
(2,71,o),
(24,93,o),
(51,93,cs),
(77,93,o),
(99,71,o),
(99,45,cs),
(99,18,o),
(77,-4,o),
(51,-4,cs)
);
}
);
width = 600;
}
);
},
{
export = 0;
glyphname = cutdetail.part;
lastChange = "2023-11-20 19:23:35 +0000";
layers = (
{
layerId = m01;
shapes = (
{
closed = 1;
nodes = (
(396,409,l),
(396,434,l),
(372,434,o),
(354,443,o),
(342,488,c),
(330,443,o),
(312,434,o),
(287,434,c),
(287,409,l)
);
}
